<svg width="258" height="56" viewBox="0 0 258 56" fill="none" xmlns="http://www.w3.org/2000/svg">
<path d="M0 0H229.5L257.5 28L229.5 56H0L28 28L0 0Z" fill="url(#paint0_linear_178_4548)"/>
<path d="M56.9751 14.636L54.5511 23H53.3271L51.3831 16.268L49.3671 23L48.1551 23.012L45.8151 14.636H46.9791L48.8031 21.728L50.8191 14.636H52.0431L53.9631 21.704L55.7991 14.636H56.9751ZM64.1701 19.46C64.1701 19.668 64.1581 19.888 64.1341 20.12H58.8781C58.9181 20.768 59.1381 21.276 59.5381 21.644C59.9461 22.004 60.4381 22.184 61.0141 22.184C61.4861 22.184 61.8781 22.076 62.1901 21.86C62.5101 21.636 62.7341 21.34 62.8621 20.972H64.0381C63.8621 21.604 63.5101 22.12 62.9821 22.52C62.4541 22.912 61.7981 23.108 61.0141 23.108C60.3901 23.108 59.8301 22.968 59.3341 22.688C58.8461 22.408 58.4621 22.012 58.1821 21.5C57.9021 20.98 57.7621 20.38 57.7621 19.7C57.7621 19.02 57.8981 18.424 58.1701 17.912C58.4421 17.4 58.8221 17.008 59.3101 16.736C59.8061 16.456 60.3741 16.316 61.0141 16.316C61.6381 16.316 62.1901 16.452 62.6701 16.724C63.1501 16.996 63.5181 17.372 63.7741 17.852C64.0381 18.324 64.1701 18.86 64.1701 19.46ZM63.0421 19.232C63.0421 18.816 62.9501 18.46 62.7661 18.164C62.5821 17.86 62.3301 17.632 62.0101 17.48C61.6981 17.32 61.3501 17.24 60.9661 17.24C60.4141 17.24 59.9421 17.416 59.5501 17.768C59.1661 18.12 58.9461 18.608 58.8901 19.232H63.0421ZM71.6115 19.46C71.6115 19.668 71.5995 19.888 71.5755 20.12H66.3195C66.3595 20.768 66.5795 21.276 66.9795 21.644C67.3875 22.004 67.8795 22.184 68.4555 22.184C68.9275 22.184 69.3195 22.076 69.6315 21.86C69.9515 21.636 70.1755 21.34 70.3035 20.972H71.4795C71.3035 21.604 70.9515 22.12 70.4235 22.52C69.8955 22.912 69.2395 23.108 68.4555 23.108C67.8315 23.108 67.2715 22.968 66.7755 22.688C66.2875 22.408 65.9035 22.012 65.6235 21.5C65.3435 20.98 65.2035 20.38 65.2035 19.7C65.2035 19.02 65.3395 18.424 65.6115 17.912C65.8835 17.4 66.2635 17.008 66.7515 16.736C67.2475 16.456 67.8155 16.316 68.4555 16.316C69.0795 16.316 69.6315 16.452 70.1115 16.724C70.5915 16.996 70.9595 17.372 71.2155 17.852C71.4795 18.324 71.6115 18.86 71.6115 19.46ZM70.4835 19.232C70.4835 18.816 70.3915 18.46 70.2075 18.164C70.0235 17.86 69.7715 17.632 69.4515 17.48C69.1395 17.32 68.7915 17.24 68.4075 17.24C67.8555 17.24 67.3835 17.416 66.9915 17.768C66.6075 18.12 66.3875 18.608 66.3315 19.232H70.4835ZM76.7249 23L74.1449 20.096V23H73.0529V14.12H74.1449V19.34L76.6769 16.424H78.2009L75.1049 19.7L78.2129 23H76.7249ZM81.9599 15.32V14.324H84.2159V23H83.1119V15.32H81.9599ZM89.0629 19.688C89.0629 19.016 89.1989 18.428 89.4709 17.924C89.7429 17.412 90.1149 17.016 90.5869 16.736C91.0669 16.456 91.5989 16.316 92.1829 16.316C92.7589 16.316 93.2589 16.44 93.6829 16.688C94.1069 16.936 94.4229 17.248 94.6309 17.624V16.424H95.7349V23H94.6309V21.776C94.4149 22.16 94.0909 22.48 93.6589 22.736C93.2349 22.984 92.7389 23.108 92.1709 23.108C91.5869 23.108 91.0589 22.964 90.5869 22.676C90.1149 22.388 89.7429 21.984 89.4709 21.464C89.1989 20.944 89.0629 20.352 89.0629 19.688ZM94.6309 19.7C94.6309 19.204 94.5309 18.772 94.3309 18.404C94.1309 18.036 93.8589 17.756 93.5149 17.564C93.1789 17.364 92.8069 17.264 92.3989 17.264C91.9909 17.264 91.6189 17.36 91.2829 17.552C90.9469 17.744 90.6789 18.024 90.4789 18.392C90.2789 18.76 90.1789 19.192 90.1789 19.688C90.1789 20.192 90.2789 20.632 90.4789 21.008C90.6789 21.376 90.9469 21.66 91.2829 21.86C91.6189 22.052 91.9909 22.148 92.3989 22.148C92.8069 22.148 93.1789 22.052 93.5149 21.86C93.8589 21.66 94.1309 21.376 94.3309 21.008C94.5309 20.632 94.6309 20.196 94.6309 19.7ZM100.256 17.324H98.8763V23H97.7843V17.324H96.9323V16.424H97.7843V15.956C97.7843 15.22 97.9723 14.684 98.3483 14.348C98.7323 14.004 99.3443 13.832 100.184 13.832V14.744C99.7043 14.744 99.3643 14.84 99.1643 15.032C98.9723 15.216 98.8763 15.524 98.8763 15.956V16.424H100.256V17.324ZM102.861 17.324V21.2C102.861 21.52 102.929 21.748 103.065 21.884C103.201 22.012 103.437 22.076 103.773 22.076H104.577V23H103.593C102.985 23 102.529 22.86 102.225 22.58C101.921 22.3 101.769 21.84 101.769 21.2V17.324H100.917V16.424H101.769V14.768H102.861V16.424H104.577V17.324H102.861ZM111.901 19.46C111.901 19.668 111.889 19.888 111.865 20.12H106.609C106.649 20.768 106.869 21.276 107.269 21.644C107.677 22.004 108.169 22.184 108.745 22.184C109.217 22.184 109.609 22.076 109.921 21.86C110.241 21.636 110.465 21.34 110.593 20.972H111.769C111.593 21.604 111.241 22.12 110.713 22.52C110.185 22.912 109.529 23.108 108.745 23.108C108.121 23.108 107.561 22.968 107.065 22.688C106.577 22.408 106.193 22.012 105.913 21.5C105.633 20.98 105.493 20.38 105.493 19.7C105.493 19.02 105.629 18.424 105.901 17.912C106.173 17.4 106.553 17.008 107.041 16.736C107.537 16.456 108.105 16.316 108.745 16.316C109.369 16.316 109.921 16.452 110.401 16.724C110.881 16.996 111.249 17.372 111.505 17.852C111.769 18.324 111.901 18.86 111.901 19.46ZM110.773 19.232C110.773 18.816 110.681 18.46 110.497 18.164C110.313 17.86 110.061 17.632 109.741 17.48C109.429 17.32 109.081 17.24 108.697 17.24C108.145 17.24 107.673 17.416 107.281 17.768C106.897 18.12 106.677 18.608 106.621 19.232H110.773ZM114.434 17.492C114.626 17.116 114.898 16.824 115.25 16.616C115.61 16.408 116.046 16.304 116.558 16.304V17.432H116.27C115.046 17.432 114.434 18.096 114.434 19.424V23H113.342V16.424H114.434V17.492ZM121.582 15.356C121.374 15.356 121.198 15.284 121.054 15.14C120.91 14.996 120.838 14.82 120.838 14.612C120.838 14.404 120.91 14.228 121.054 14.084C121.198 13.94 121.374 13.868 121.582 13.868C121.782 13.868 121.95 13.94 122.086 14.084C122.23 14.228 122.302 14.404 122.302 14.612C122.302 14.82 122.23 14.996 122.086 15.14C121.95 15.284 121.782 15.356 121.582 15.356ZM122.11 16.424V23H121.018V16.424H122.11ZM126.683 16.316C127.251 16.316 127.747 16.44 128.171 16.688C128.603 16.936 128.923 17.248 129.131 17.624V16.424H130.235V23.144C130.235 23.744 130.107 24.276 129.851 24.74C129.595 25.212 129.227 25.58 128.747 25.844C128.275 26.108 127.723 26.24 127.091 26.24C126.227 26.24 125.507 26.036 124.931 25.628C124.355 25.22 124.015 24.664 123.911 23.96H124.991C125.111 24.36 125.359 24.68 125.735 24.92C126.111 25.168 126.563 25.292 127.091 25.292C127.691 25.292 128.179 25.104 128.555 24.728C128.939 24.352 129.131 23.824 129.131 23.144V21.764C128.915 22.148 128.595 22.468 128.171 22.724C127.747 22.98 127.251 23.108 126.683 23.108C126.099 23.108 125.567 22.964 125.087 22.676C124.615 22.388 124.243 21.984 123.971 21.464C123.699 20.944 123.563 20.352 123.563 19.688C123.563 19.016 123.699 18.428 123.971 17.924C124.243 17.412 124.615 17.016 125.087 16.736C125.567 16.456 126.099 16.316 126.683 16.316ZM129.131 19.7C129.131 19.204 129.031 18.772 128.831 18.404C128.631 18.036 128.359 17.756 128.015 17.564C127.679 17.364 127.307 17.264 126.899 17.264C126.491 17.264 126.119 17.36 125.783 17.552C125.447 17.744 125.179 18.024 124.979 18.392C124.779 18.76 124.679 19.192 124.679 19.688C124.679 20.192 124.779 20.632 124.979 21.008C125.179 21.376 125.447 21.66 125.783 21.86C126.119 22.052 126.491 22.148 126.899 22.148C127.307 22.148 127.679 22.052 128.015 21.86C128.359 21.66 128.631 21.376 128.831 21.008C129.031 20.632 129.131 20.196 129.131 19.7ZM135.284 16.304C136.084 16.304 136.732 16.548 137.228 17.036C137.724 17.516 137.972 18.212 137.972 19.124V23H136.892V19.28C136.892 18.624 136.728 18.124 136.4 17.78C136.072 17.428 135.624 17.252 135.056 17.252C134.48 17.252 134.02 17.432 133.676 17.792C133.34 18.152 133.172 18.676 133.172 19.364V23H132.08V16.424H133.172V17.36C133.388 17.024 133.68 16.764 134.048 16.58C134.424 16.396 134.836 16.304 135.284 16.304ZM140.32 15.356C140.112 15.356 139.936 15.284 139.792 15.14C139.648 14.996 139.576 14.82 139.576 14.612C139.576 14.404 139.648 14.228 139.792 14.084C139.936 13.94 140.112 13.868 140.32 13.868C140.52 13.868 140.688 13.94 140.824 14.084C140.968 14.228 141.04 14.404 141.04 14.612C141.04 14.82 140.968 14.996 140.824 15.14C140.688 15.284 140.52 15.356 140.32 15.356ZM140.848 16.424V23H139.756V16.424H140.848ZM144.041 17.324V21.2C144.041 21.52 144.109 21.748 144.245 21.884C144.381 22.012 144.617 22.076 144.953 22.076H145.757V23H144.773C144.165 23 143.709 22.86 143.405 22.58C143.101 22.3 142.949 21.84 142.949 21.2V17.324H142.097V16.424H142.949V14.768H144.041V16.424H145.757V17.324H144.041ZM147.644 15.356C147.436 15.356 147.26 15.284 147.116 15.14C146.972 14.996 146.9 14.82 146.9 14.612C146.9 14.404 146.972 14.228 147.116 14.084C147.26 13.94 147.436 13.868 147.644 13.868C147.844 13.868 148.012 13.94 148.148 14.084C148.292 14.228 148.364 14.404 148.364 14.612C148.364 14.82 148.292 14.996 148.148 15.14C148.012 15.284 147.844 15.356 147.644 15.356ZM148.172 16.424V23H147.08V16.424H148.172ZM152.901 23.108C152.285 23.108 151.725 22.968 151.221 22.688C150.725 22.408 150.333 22.012 150.045 21.5C149.765 20.98 149.625 20.38 149.625 19.7C149.625 19.028 149.769 18.436 150.057 17.924C150.353 17.404 150.753 17.008 151.257 16.736C151.761 16.456 152.325 16.316 152.949 16.316C153.573 16.316 154.137 16.456 154.641 16.736C155.145 17.008 155.541 17.4 155.829 17.912C156.125 18.424 156.273 19.02 156.273 19.7C156.273 20.38 156.121 20.98 155.817 21.5C155.521 22.012 155.117 22.408 154.605 22.688C154.093 22.968 153.525 23.108 152.901 23.108ZM152.901 22.148C153.293 22.148 153.661 22.056 154.005 21.872C154.349 21.688 154.625 21.412 154.833 21.044C155.049 20.676 155.157 20.228 155.157 19.7C155.157 19.172 155.053 18.724 154.845 18.356C154.637 17.988 154.365 17.716 154.029 17.54C153.693 17.356 153.329 17.264 152.937 17.264C152.537 17.264 152.169 17.356 151.833 17.54C151.505 17.716 151.241 17.988 151.041 18.356C150.841 18.724 150.741 19.172 150.741 19.7C150.741 20.236 150.837 20.688 151.029 21.056C151.229 21.424 151.493 21.7 151.821 21.884C152.149 22.06 152.509 22.148 152.901 22.148ZM160.913 16.304C161.713 16.304 162.361 16.548 162.857 17.036C163.353 17.516 163.601 18.212 163.601 19.124V23H162.521V19.28C162.521 18.624 162.357 18.124 162.029 17.78C161.701 17.428 161.253 17.252 160.685 17.252C160.109 17.252 159.649 17.432 159.305 17.792C158.969 18.152 158.801 18.676 158.801 19.364V23H157.709V16.424H158.801V17.36C159.017 17.024 159.309 16.764 159.677 16.58C160.053 16.396 160.465 16.304 160.913 16.304ZM65.9242 35.636C66.1402 35.26 66.4602 34.948 66.8842 34.7C67.3162 34.444 67.8162 34.316 68.3842 34.316C68.9682 34.316 69.4962 34.456 69.9682 34.736C70.4482 35.016 70.8242 35.412 71.0962 35.924C71.3682 36.428 71.5042 37.016 71.5042 37.688C71.5042 38.352 71.3682 38.944 71.0962 39.464C70.8242 39.984 70.4482 40.388 69.9682 40.676C69.4962 40.964 68.9682 41.108 68.3842 41.108C67.8242 41.108 67.3282 40.984 66.8962 40.736C66.4722 40.48 66.1482 40.164 65.9242 39.788V44.12H64.8322V34.424H65.9242V35.636ZM70.3882 37.688C70.3882 37.192 70.2882 36.76 70.0882 36.392C69.8882 36.024 69.6162 35.744 69.2722 35.552C68.9362 35.36 68.5642 35.264 68.1562 35.264C67.7562 35.264 67.3842 35.364 67.0402 35.564C66.7042 35.756 66.4322 36.04 66.2242 36.416C66.0242 36.784 65.9242 37.212 65.9242 37.7C65.9242 38.196 66.0242 38.632 66.2242 39.008C66.4322 39.376 66.7042 39.66 67.0402 39.86C67.3842 40.052 67.7562 40.148 68.1562 40.148C68.5642 40.148 68.9362 40.052 69.2722 39.86C69.6162 39.66 69.8882 39.376 70.0882 39.008C70.2882 38.632 70.3882 38.192 70.3882 37.688ZM76.2056 34.304C76.7016 34.304 77.1496 34.412 77.5496 34.628C77.9496 34.836 78.2616 35.152 78.4856 35.576C78.7176 36 78.8336 36.516 78.8336 37.124V41H77.7536V37.28C77.7536 36.624 77.5896 36.124 77.2616 35.78C76.9336 35.428 76.4856 35.252 75.9176 35.252C75.3416 35.252 74.8816 35.432 74.5376 35.792C74.2016 36.152 74.0336 36.676 74.0336 37.364V41H72.9416V32.12H74.0336V35.36C74.2496 35.024 74.5456 34.764 74.9216 34.58C75.3056 34.396 75.7336 34.304 76.2056 34.304ZM80.2094 37.688C80.2094 37.016 80.3454 36.428 80.6174 35.924C80.8894 35.412 81.2614 35.016 81.7334 34.736C82.2134 34.456 82.7454 34.316 83.3294 34.316C83.9054 34.316 84.4054 34.44 84.8294 34.688C85.2534 34.936 85.5694 35.248 85.7774 35.624V34.424H86.8814V41H85.7774V39.776C85.5614 40.16 85.2374 40.48 84.8054 40.736C84.3814 40.984 83.8854 41.108 83.3174 41.108C82.7334 41.108 82.2054 40.964 81.7334 40.676C81.2614 40.388 80.8894 39.984 80.6174 39.464C80.3454 38.944 80.2094 38.352 80.2094 37.688ZM85.7774 37.7C85.7774 37.204 85.6774 36.772 85.4774 36.404C85.2774 36.036 85.0054 35.756 84.6614 35.564C84.3254 35.364 83.9534 35.264 83.5454 35.264C83.1374 35.264 82.7654 35.36 82.4294 35.552C82.0934 35.744 81.8254 36.024 81.6254 36.392C81.4254 36.76 81.3254 37.192 81.3254 37.688C81.3254 38.192 81.4254 38.632 81.6254 39.008C81.8254 39.376 82.0934 39.66 82.4294 39.86C82.7654 40.052 83.1374 40.148 83.5454 40.148C83.9534 40.148 84.3254 40.052 84.6614 39.86C85.0054 39.66 85.2774 39.376 85.4774 39.008C85.6774 38.632 85.7774 38.196 85.7774 37.7ZM91.0547 41.108C90.5507 41.108 90.0987 41.024 89.6987 40.856C89.2987 40.68 88.9827 40.44 88.7507 40.136C88.5187 39.824 88.3907 39.468 88.3667 39.068H89.4947C89.5267 39.396 89.6787 39.664 89.9507 39.872C90.2307 40.08 90.5947 40.184 91.0427 40.184C91.4587 40.184 91.7867 40.092 92.0267 39.908C92.2667 39.724 92.3867 39.492 92.3867 39.212C92.3867 38.924 92.2587 38.712 92.0027 38.576C91.7467 38.432 91.3507 38.292 90.8147 38.156C90.3267 38.028 89.9267 37.9 89.6147 37.772C89.3107 37.636 89.0467 37.44 88.8227 37.184C88.6067 36.92 88.4987 36.576 88.4987 36.152C88.4987 35.816 88.5987 35.508 88.7987 35.228C88.9987 34.948 89.2827 34.728 89.6507 34.568C90.0187 34.4 90.4387 34.316 90.9107 34.316C91.6387 34.316 92.2267 34.5 92.6747 34.868C93.1227 35.236 93.3627 35.74 93.3947 36.38H92.3027C92.2787 36.036 92.1387 35.76 91.8827 35.552C91.6347 35.344 91.2987 35.24 90.8747 35.24C90.4827 35.24 90.1707 35.324 89.9387 35.492C89.7067 35.66 89.5907 35.88 89.5907 36.152C89.5907 36.368 89.6587 36.548 89.7947 36.692C89.9387 36.828 90.1147 36.94 90.3227 37.028C90.5387 37.108 90.8347 37.2 91.2107 37.304C91.6827 37.432 92.0667 37.56 92.3627 37.688C92.6587 37.808 92.9107 37.992 93.1187 38.24C93.3347 38.488 93.4467 38.812 93.4547 39.212C93.4547 39.572 93.3547 39.896 93.1547 40.184C92.9547 40.472 92.6707 40.7 92.3027 40.868C91.9427 41.028 91.5267 41.108 91.0547 41.108ZM100.996 37.46C100.996 37.668 100.984 37.888 100.96 38.12H95.7043C95.7443 38.768 95.9643 39.276 96.3643 39.644C96.7723 40.004 97.2643 40.184 97.8403 40.184C98.3123 40.184 98.7043 40.076 99.0163 39.86C99.3363 39.636 99.5603 39.34 99.6883 38.972H100.864C100.688 39.604 100.336 40.12 99.8083 40.52C99.2803 40.912 98.6243 41.108 97.8403 41.108C97.2163 41.108 96.6563 40.968 96.1603 40.688C95.6723 40.408 95.2883 40.012 95.0083 39.5C94.7283 38.98 94.5883 38.38 94.5883 37.7C94.5883 37.02 94.7243 36.424 94.9963 35.912C95.2683 35.4 95.6483 35.008 96.1363 34.736C96.6323 34.456 97.2003 34.316 97.8403 34.316C98.4643 34.316 99.0163 34.452 99.4963 34.724C99.9763 34.996 100.344 35.372 100.6 35.852C100.864 36.324 100.996 36.86 100.996 37.46ZM99.8683 37.232C99.8683 36.816 99.7763 36.46 99.5923 36.164C99.4083 35.86 99.1563 35.632 98.8363 35.48C98.5243 35.32 98.1763 35.24 97.7923 35.24C97.2403 35.24 96.7683 35.416 96.3763 35.768C95.9923 36.12 95.7723 36.608 95.7163 37.232H99.8683ZM106.729 32.12V41H105.637V32.12H106.729ZM108.182 37.688C108.182 37.016 108.318 36.428 108.59 35.924C108.862 35.412 109.234 35.016 109.706 34.736C110.186 34.456 110.718 34.316 111.302 34.316C111.878 34.316 112.378 34.44 112.802 34.688C113.226 34.936 113.542 35.248 113.75 35.624V34.424H114.854V41H113.75V39.776C113.534 40.16 113.21 40.48 112.778 40.736C112.354 40.984 111.858 41.108 111.29 41.108C110.706 41.108 110.178 40.964 109.706 40.676C109.234 40.388 108.862 39.984 108.59 39.464C108.318 38.944 108.182 38.352 108.182 37.688ZM113.75 37.7C113.75 37.204 113.65 36.772 113.45 36.404C113.25 36.036 112.978 35.756 112.634 35.564C112.298 35.364 111.926 35.264 111.518 35.264C111.11 35.264 110.738 35.36 110.402 35.552C110.066 35.744 109.798 36.024 109.598 36.392C109.398 36.76 109.298 37.192 109.298 37.688C109.298 38.192 109.398 38.632 109.598 39.008C109.798 39.376 110.066 39.66 110.402 39.86C110.738 40.052 111.11 40.148 111.518 40.148C111.926 40.148 112.298 40.052 112.634 39.86C112.978 39.66 113.25 39.376 113.45 39.008C113.65 38.632 113.75 38.196 113.75 37.7ZM122.531 34.424V41H121.439V40.028C121.231 40.364 120.939 40.628 120.563 40.82C120.195 41.004 119.787 41.096 119.339 41.096C118.827 41.096 118.367 40.992 117.959 40.784C117.551 40.568 117.227 40.248 116.987 39.824C116.755 39.4 116.639 38.884 116.639 38.276V34.424H117.719V38.132C117.719 38.78 117.883 39.28 118.211 39.632C118.539 39.976 118.987 40.148 119.555 40.148C120.139 40.148 120.599 39.968 120.935 39.608C121.271 39.248 121.439 38.724 121.439 38.036V34.424H122.531ZM127.579 34.304C128.379 34.304 129.027 34.548 129.523 35.036C130.019 35.516 130.267 36.212 130.267 37.124V41H129.187V37.28C129.187 36.624 129.023 36.124 128.695 35.78C128.367 35.428 127.919 35.252 127.351 35.252C126.775 35.252 126.315 35.432 125.971 35.792C125.635 36.152 125.467 36.676 125.467 37.364V41H124.375V34.424H125.467V35.36C125.683 35.024 125.975 34.764 126.343 34.58C126.719 34.396 127.131 34.304 127.579 34.304ZM131.643 37.7C131.643 37.02 131.779 36.428 132.051 35.924C132.323 35.412 132.699 35.016 133.179 34.736C133.667 34.456 134.223 34.316 134.847 34.316C135.655 34.316 136.319 34.512 136.839 34.904C137.367 35.296 137.715 35.84 137.883 36.536H136.707C136.595 36.136 136.375 35.82 136.047 35.588C135.727 35.356 135.327 35.24 134.847 35.24C134.223 35.24 133.719 35.456 133.335 35.888C132.951 36.312 132.759 36.916 132.759 37.7C132.759 38.492 132.951 39.104 133.335 39.536C133.719 39.968 134.223 40.184 134.847 40.184C135.327 40.184 135.727 40.072 136.047 39.848C136.367 39.624 136.587 39.304 136.707 38.888H137.883C137.707 39.56 137.355 40.1 136.827 40.508C136.299 40.908 135.639 41.108 134.847 41.108C134.223 41.108 133.667 40.968 133.179 40.688C132.699 40.408 132.323 40.012 132.051 39.5C131.779 38.988 131.643 38.388 131.643 37.7ZM142.604 34.304C143.1 34.304 143.548 34.412 143.948 34.628C144.348 34.836 144.66 35.152 144.884 35.576C145.116 36 145.232 36.516 145.232 37.124V41H144.152V37.28C144.152 36.624 143.988 36.124 143.66 35.78C143.332 35.428 142.884 35.252 142.316 35.252C141.74 35.252 141.28 35.432 140.936 35.792C140.6 36.152 140.432 36.676 140.432 37.364V41H139.34V32.12H140.432V35.36C140.648 35.024 140.944 34.764 141.32 34.58C141.704 34.396 142.132 34.304 142.604 34.304Z" fill="white"/>
<path d="M211.5 51.9815H210.543C197.683 51.4833 187.5 40.9872 187.5 28C187.5 14.6927 198.21 4 211.5 4C224.791 4 235.5 14.6751 235.5 27.9815C235.5 41.2893 224.808 51.9815 211.5 51.9815Z" fill="#0D141E" stroke="url(#paint1_linear_178_4548)" stroke-width="2"/>
<path d="M206.972 19.5658C209.945 22.5451 213.448 25.9583 215.03 29.6545C216.706 33.5701 215.233 38.0359 213.45 40.8869C211.668 43.7379 210.502 46.0649 211.086 46.5337C211.669 47.0024 215.701 44.1419 216.625 39.272C217.629 33.9813 217.111 29.9254 213.062 25.0783C208.562 19.6905 204.057 16.2389 202.274 15.0352C200.492 13.8315 200.201 10.3463 203.893 11.1076C207.587 11.8677 218.827 16.9366 221.58 22.5127C224.333 28.0887 218.989 39.6844 217.401 42.3771C219.734 36.7699 223.199 27.8034 220.673 22.8927C218.146 17.9821 208.364 13.7044 205.999 12.9767C203.635 12.249 201.562 11.9624 202.663 13.3891C203.764 14.8158 206.809 16.4307 210.826 20.5813C214.843 24.7318 217.174 28.0264 218.081 32.0499C218.989 36.0733 217.985 40.8257 216.202 43.7714C214.42 46.7171 211.83 48.5874 210.177 47.6367C208.525 46.6859 211.678 42.0234 213.125 39.3044C214.678 36.3887 216.138 32.1122 213.417 27.9305C210.696 23.7487 208.98 21.7526 206.97 19.567L206.972 19.5658Z" fill="url(#paint2_linear_178_4548)"/>
<defs>
<linearGradient id="paint0_linear_178_4548" x1="128.75" y1="0" x2="128.75" y2="56" gradientUnits="userSpaceOnUse">
<stop stop-color="#4BD4FF"/>
<stop offset="1" stop-color="#007AD5"/>
</linearGradient>
<linearGradient id="paint1_linear_178_4548" x1="211.5" y1="3" x2="211.5" y2="53" gradientUnits="userSpaceOnUse">
<stop stop-color="#4BD4FF"/>
<stop offset="1" stop-color="#007AD5"/>
</linearGradient>
<linearGradient id="paint2_linear_178_4548" x1="205.377" y1="9.99626" x2="219.611" y2="45.8408" gradientUnits="userSpaceOnUse">
<stop offset="0.21" stop-color="#29C5F6"/>
<stop offset="0.51" stop-color="#1B88DD"/>
<stop offset="0.87" stop-color="#29C5F6"/>
</linearGradient>
</defs>
</svg>
