<svg width="258" height="56" viewBox="0 0 258 56" fill="none" xmlns="http://www.w3.org/2000/svg">
<path d="M0.5 0H230L258 28L230 56H0.5L28.5 28L0.5 0Z" fill="url(#paint0_linear_178_4552)"/>
<path d="M77.6294 14.636L75.2054 23H73.9814L72.0374 16.268L70.0214 23L68.8094 23.012L66.4694 14.636H67.6334L69.4574 21.728L71.4734 14.636H72.6974L74.6174 21.704L76.4534 14.636H77.6294ZM84.8244 19.46C84.8244 19.668 84.8124 19.888 84.7884 20.12H79.5324C79.5724 20.768 79.7924 21.276 80.1924 21.644C80.6004 22.004 81.0924 22.184 81.6684 22.184C82.1404 22.184 82.5324 22.076 82.8444 21.86C83.1644 21.636 83.3884 21.34 83.5164 20.972H84.6924C84.5164 21.604 84.1644 22.12 83.6364 22.52C83.1084 22.912 82.4524 23.108 81.6684 23.108C81.0444 23.108 80.4844 22.968 79.9884 22.688C79.5004 22.408 79.1164 22.012 78.8364 21.5C78.5564 20.98 78.4164 20.38 78.4164 19.7C78.4164 19.02 78.5524 18.424 78.8244 17.912C79.0964 17.4 79.4764 17.008 79.9644 16.736C80.4604 16.456 81.0284 16.316 81.6684 16.316C82.2924 16.316 82.8444 16.452 83.3244 16.724C83.8044 16.996 84.1724 17.372 84.4284 17.852C84.6924 18.324 84.8244 18.86 84.8244 19.46ZM83.6964 19.232C83.6964 18.816 83.6044 18.46 83.4204 18.164C83.2364 17.86 82.9844 17.632 82.6644 17.48C82.3524 17.32 82.0044 17.24 81.6204 17.24C81.0684 17.24 80.5964 17.416 80.2044 17.768C79.8204 18.12 79.6004 18.608 79.5444 19.232H83.6964ZM92.2658 19.46C92.2658 19.668 92.2538 19.888 92.2298 20.12H86.9738C87.0138 20.768 87.2338 21.276 87.6338 21.644C88.0418 22.004 88.5338 22.184 89.1098 22.184C89.5818 22.184 89.9738 22.076 90.2858 21.86C90.6058 21.636 90.8298 21.34 90.9578 20.972H92.1338C91.9578 21.604 91.6058 22.12 91.0778 22.52C90.5498 22.912 89.8938 23.108 89.1098 23.108C88.4858 23.108 87.9258 22.968 87.4298 22.688C86.9418 22.408 86.5578 22.012 86.2778 21.5C85.9978 20.98 85.8578 20.38 85.8578 19.7C85.8578 19.02 85.9938 18.424 86.2658 17.912C86.5378 17.4 86.9178 17.008 87.4058 16.736C87.9018 16.456 88.4698 16.316 89.1098 16.316C89.7338 16.316 90.2858 16.452 90.7658 16.724C91.2458 16.996 91.6138 17.372 91.8698 17.852C92.1338 18.324 92.2658 18.86 92.2658 19.46ZM91.1378 19.232C91.1378 18.816 91.0458 18.46 90.8618 18.164C90.6778 17.86 90.4258 17.632 90.1058 17.48C89.7938 17.32 89.4458 17.24 89.0618 17.24C88.5098 17.24 88.0378 17.416 87.6458 17.768C87.2618 18.12 87.0418 18.608 86.9858 19.232H91.1378ZM97.3792 23L94.7992 20.096V23H93.7072V14.12H94.7992V19.34L97.3312 16.424H98.8552L95.7592 19.7L98.8672 23H97.3792ZM102.77 22.124C103.786 21.308 104.582 20.64 105.158 20.12C105.734 19.592 106.218 19.044 106.61 18.476C107.01 17.9 107.21 17.336 107.21 16.784C107.21 16.264 107.082 15.856 106.826 15.56C106.578 15.256 106.174 15.104 105.614 15.104C105.07 15.104 104.646 15.276 104.342 15.62C104.046 15.956 103.886 16.408 103.862 16.976H102.806C102.838 16.08 103.11 15.388 103.622 14.9C104.134 14.412 104.794 14.168 105.602 14.168C106.426 14.168 107.078 14.396 107.558 14.852C108.046 15.308 108.29 15.936 108.29 16.736C108.29 17.4 108.09 18.048 107.69 18.68C107.298 19.304 106.85 19.856 106.346 20.336C105.842 20.808 105.198 21.36 104.414 21.992H108.542V22.904H102.77V22.124ZM112.776 19.688C112.776 19.016 112.912 18.428 113.184 17.924C113.456 17.412 113.828 17.016 114.3 16.736C114.78 16.456 115.312 16.316 115.896 16.316C116.472 16.316 116.972 16.44 117.396 16.688C117.82 16.936 118.136 17.248 118.344 17.624V16.424H119.448V23H118.344V21.776C118.128 22.16 117.804 22.48 117.372 22.736C116.948 22.984 116.452 23.108 115.884 23.108C115.3 23.108 114.772 22.964 114.3 22.676C113.828 22.388 113.456 21.984 113.184 21.464C112.912 20.944 112.776 20.352 112.776 19.688ZM118.344 19.7C118.344 19.204 118.244 18.772 118.044 18.404C117.844 18.036 117.572 17.756 117.228 17.564C116.892 17.364 116.52 17.264 116.112 17.264C115.704 17.264 115.332 17.36 114.996 17.552C114.66 17.744 114.392 18.024 114.192 18.392C113.992 18.76 113.892 19.192 113.892 19.688C113.892 20.192 113.992 20.632 114.192 21.008C114.392 21.376 114.66 21.66 114.996 21.86C115.332 22.052 115.704 22.148 116.112 22.148C116.52 22.148 116.892 22.052 117.228 21.86C117.572 21.66 117.844 21.376 118.044 21.008C118.244 20.632 118.344 20.196 118.344 19.7ZM123.969 17.324H122.589V23H121.497V17.324H120.645V16.424H121.497V15.956C121.497 15.22 121.685 14.684 122.061 14.348C122.445 14.004 123.057 13.832 123.897 13.832V14.744C123.417 14.744 123.077 14.84 122.877 15.032C122.685 15.216 122.589 15.524 122.589 15.956V16.424H123.969V17.324ZM126.574 17.324V21.2C126.574 21.52 126.642 21.748 126.778 21.884C126.914 22.012 127.15 22.076 127.486 22.076H128.29V23H127.306C126.698 23 126.242 22.86 125.938 22.58C125.634 22.3 125.482 21.84 125.482 21.2V17.324H124.63V16.424H125.482V14.768H126.574V16.424H128.29V17.324H126.574ZM135.613 19.46C135.613 19.668 135.601 19.888 135.577 20.12H130.321C130.361 20.768 130.581 21.276 130.981 21.644C131.389 22.004 131.881 22.184 132.457 22.184C132.929 22.184 133.321 22.076 133.633 21.86C133.953 21.636 134.177 21.34 134.305 20.972H135.481C135.305 21.604 134.953 22.12 134.425 22.52C133.897 22.912 133.241 23.108 132.457 23.108C131.833 23.108 131.273 22.968 130.777 22.688C130.289 22.408 129.905 22.012 129.625 21.5C129.345 20.98 129.205 20.38 129.205 19.7C129.205 19.02 129.341 18.424 129.613 17.912C129.885 17.4 130.265 17.008 130.753 16.736C131.249 16.456 131.817 16.316 132.457 16.316C133.081 16.316 133.633 16.452 134.113 16.724C134.593 16.996 134.961 17.372 135.217 17.852C135.481 18.324 135.613 18.86 135.613 19.46ZM134.485 19.232C134.485 18.816 134.393 18.46 134.209 18.164C134.025 17.86 133.773 17.632 133.453 17.48C133.141 17.32 132.793 17.24 132.409 17.24C131.857 17.24 131.385 17.416 130.993 17.768C130.609 18.12 130.389 18.608 130.333 19.232H134.485ZM138.147 17.492C138.339 17.116 138.611 16.824 138.963 16.616C139.323 16.408 139.759 16.304 140.271 16.304V17.432H139.983C138.759 17.432 138.147 18.096 138.147 19.424V23H137.055V16.424H138.147V17.492ZM75.2228 35.324V39.2C75.2228 39.52 75.2908 39.748 75.4268 39.884C75.5628 40.012 75.7988 40.076 76.1348 40.076H76.9388V41H75.9548C75.3468 41 74.8908 40.86 74.5868 40.58C74.2828 40.3 74.1308 39.84 74.1308 39.2V35.324H73.2788V34.424H74.1308V32.768H75.2228V34.424H76.9388V35.324H75.2228ZM81.5259 34.304C82.0219 34.304 82.4699 34.412 82.8699 34.628C83.2699 34.836 83.5819 35.152 83.8059 35.576C84.0379 36 84.1539 36.516 84.1539 37.124V41H83.0739V37.28C83.0739 36.624 82.9099 36.124 82.5819 35.78C82.2539 35.428 81.8059 35.252 81.2379 35.252C80.6619 35.252 80.2019 35.432 79.8579 35.792C79.5219 36.152 79.3539 36.676 79.3539 37.364V41H78.2619V32.12H79.3539V35.36C79.5699 35.024 79.8659 34.764 80.2419 34.58C80.6259 34.396 81.0539 34.304 81.5259 34.304ZM91.9377 37.46C91.9377 37.668 91.9257 37.888 91.9017 38.12H86.6457C86.6857 38.768 86.9057 39.276 87.3057 39.644C87.7137 40.004 88.2057 40.184 88.7817 40.184C89.2537 40.184 89.6457 40.076 89.9577 39.86C90.2777 39.636 90.5017 39.34 90.6297 38.972H91.8057C91.6297 39.604 91.2777 40.12 90.7497 40.52C90.2217 40.912 89.5657 41.108 88.7817 41.108C88.1577 41.108 87.5977 40.968 87.1017 40.688C86.6137 40.408 86.2297 40.012 85.9497 39.5C85.6697 38.98 85.5297 38.38 85.5297 37.7C85.5297 37.02 85.6657 36.424 85.9377 35.912C86.2097 35.4 86.5897 35.008 87.0777 34.736C87.5737 34.456 88.1417 34.316 88.7817 34.316C89.4057 34.316 89.9577 34.452 90.4377 34.724C90.9177 34.996 91.2857 35.372 91.5417 35.852C91.8057 36.324 91.9377 36.86 91.9377 37.46ZM90.8097 37.232C90.8097 36.816 90.7177 36.46 90.5337 36.164C90.3497 35.86 90.0977 35.632 89.7777 35.48C89.4657 35.32 89.1177 35.24 88.7337 35.24C88.1817 35.24 87.7097 35.416 87.3177 35.768C86.9337 36.12 86.7137 36.608 86.6577 37.232H90.8097ZM97.6703 32.12V41H96.5783V32.12H97.6703ZM99.1234 37.688C99.1234 37.016 99.2594 36.428 99.5314 35.924C99.8034 35.412 100.175 35.016 100.647 34.736C101.127 34.456 101.659 34.316 102.243 34.316C102.819 34.316 103.319 34.44 103.743 34.688C104.167 34.936 104.483 35.248 104.691 35.624V34.424H105.795V41H104.691V39.776C104.475 40.16 104.151 40.48 103.719 40.736C103.295 40.984 102.799 41.108 102.231 41.108C101.647 41.108 101.119 40.964 100.647 40.676C100.175 40.388 99.8034 39.984 99.5314 39.464C99.2594 38.944 99.1234 38.352 99.1234 37.688ZM104.691 37.7C104.691 37.204 104.591 36.772 104.391 36.404C104.191 36.036 103.919 35.756 103.575 35.564C103.239 35.364 102.867 35.264 102.459 35.264C102.051 35.264 101.679 35.36 101.343 35.552C101.007 35.744 100.739 36.024 100.539 36.392C100.339 36.76 100.239 37.192 100.239 37.688C100.239 38.192 100.339 38.632 100.539 39.008C100.739 39.376 101.007 39.66 101.343 39.86C101.679 40.052 102.051 40.148 102.459 40.148C102.867 40.148 103.239 40.052 103.575 39.86C103.919 39.66 104.191 39.376 104.391 39.008C104.591 38.632 104.691 38.196 104.691 37.7ZM113.473 34.424V41H112.381V40.028C112.173 40.364 111.881 40.628 111.505 40.82C111.137 41.004 110.729 41.096 110.281 41.096C109.769 41.096 109.309 40.992 108.901 40.784C108.493 40.568 108.169 40.248 107.929 39.824C107.697 39.4 107.581 38.884 107.581 38.276V34.424H108.661V38.132C108.661 38.78 108.825 39.28 109.153 39.632C109.481 39.976 109.929 40.148 110.497 40.148C111.081 40.148 111.541 39.968 111.877 39.608C112.213 39.248 112.381 38.724 112.381 38.036V34.424H113.473ZM118.521 34.304C119.321 34.304 119.969 34.548 120.465 35.036C120.961 35.516 121.209 36.212 121.209 37.124V41H120.129V37.28C120.129 36.624 119.965 36.124 119.637 35.78C119.309 35.428 118.861 35.252 118.293 35.252C117.717 35.252 117.257 35.432 116.913 35.792C116.577 36.152 116.409 36.676 116.409 37.364V41H115.317V34.424H116.409V35.36C116.625 35.024 116.917 34.764 117.285 34.58C117.661 34.396 118.073 34.304 118.521 34.304ZM122.584 37.7C122.584 37.02 122.72 36.428 122.992 35.924C123.264 35.412 123.64 35.016 124.12 34.736C124.608 34.456 125.164 34.316 125.788 34.316C126.596 34.316 127.26 34.512 127.78 34.904C128.308 35.296 128.656 35.84 128.824 36.536H127.648C127.536 36.136 127.316 35.82 126.988 35.588C126.668 35.356 126.268 35.24 125.788 35.24C125.164 35.24 124.66 35.456 124.276 35.888C123.892 36.312 123.7 36.916 123.7 37.7C123.7 38.492 123.892 39.104 124.276 39.536C124.66 39.968 125.164 40.184 125.788 40.184C126.268 40.184 126.668 40.072 126.988 39.848C127.308 39.624 127.528 39.304 127.648 38.888H128.824C128.648 39.56 128.296 40.1 127.768 40.508C127.24 40.908 126.58 41.108 125.788 41.108C125.164 41.108 124.608 40.968 124.12 40.688C123.64 40.408 123.264 40.012 122.992 39.5C122.72 38.988 122.584 38.388 122.584 37.7ZM133.545 34.304C134.041 34.304 134.489 34.412 134.889 34.628C135.289 34.836 135.601 35.152 135.825 35.576C136.057 36 136.173 36.516 136.173 37.124V41H135.093V37.28C135.093 36.624 134.929 36.124 134.601 35.78C134.273 35.428 133.825 35.252 133.257 35.252C132.681 35.252 132.221 35.432 131.877 35.792C131.541 36.152 131.373 36.676 131.373 37.364V41H130.281V32.12H131.373V35.36C131.589 35.024 131.885 34.764 132.261 34.58C132.645 34.396 133.073 34.304 133.545 34.304Z" fill="white"/>
<path d="M212 51.9815H211.043C198.183 51.4833 188 40.9872 188 28C188 14.6927 198.71 4 212 4C225.291 4 236 14.6751 236 27.9815C236 41.2893 225.308 51.9815 212 51.9815Z" fill="#0D141E" stroke="url(#paint1_linear_178_4552)" stroke-width="2"/>
<path d="M207.472 19.5658C210.445 22.5451 213.948 25.9583 215.53 29.6545C217.206 33.5701 215.733 38.0359 213.95 40.8869C212.168 43.7379 211.002 46.0649 211.586 46.5337C212.169 47.0024 216.201 44.1419 217.125 39.272C218.129 33.9813 217.611 29.9254 213.562 25.0783C209.062 19.6905 204.557 16.2389 202.774 15.0352C200.992 13.8315 200.701 10.3463 204.393 11.1076C208.087 11.8677 219.327 16.9366 222.08 22.5127C224.833 28.0887 219.489 39.6844 217.901 42.3771C220.234 36.7699 223.699 27.8034 221.173 22.8927C218.646 17.9821 208.864 13.7044 206.499 12.9767C204.135 12.249 202.062 11.9624 203.163 13.3891C204.264 14.8158 207.309 16.4307 211.326 20.5813C215.343 24.7318 217.674 28.0264 218.581 32.0499C219.489 36.0733 218.485 40.8257 216.702 43.7714C214.92 46.7171 212.33 48.5874 210.677 47.6367C209.025 46.6859 212.178 42.0234 213.625 39.3044C215.178 36.3887 216.638 32.1122 213.917 27.9305C211.196 23.7487 209.48 21.7526 207.47 19.567L207.472 19.5658Z" fill="url(#paint2_linear_178_4552)"/>
<defs>
<linearGradient id="paint0_linear_178_4552" x1="129.25" y1="0" x2="129.25" y2="56" gradientUnits="userSpaceOnUse">
<stop stop-color="#4BD4FF"/>
<stop offset="1" stop-color="#007AD5"/>
</linearGradient>
<linearGradient id="paint1_linear_178_4552" x1="212" y1="3" x2="212" y2="53" gradientUnits="userSpaceOnUse">
<stop stop-color="#4BD4FF"/>
<stop offset="1" stop-color="#007AD5"/>
</linearGradient>
<linearGradient id="paint2_linear_178_4552" x1="205.877" y1="9.99626" x2="220.111" y2="45.8408" gradientUnits="userSpaceOnUse">
<stop offset="0.21" stop-color="#29C5F6"/>
<stop offset="0.51" stop-color="#1B88DD"/>
<stop offset="0.87" stop-color="#29C5F6"/>
</linearGradient>
</defs>
</svg>
