<svg width="258" height="56" viewBox="0 0 258 56" fill="none" xmlns="http://www.w3.org/2000/svg">
<path d="M0 0H229.5L257.5 28L229.5 56H0L28 28L0 0Z" fill="url(#paint0_linear_178_4556)"/>
<path d="M77.0473 14.636L74.6233 23H73.3993L71.4553 16.268L69.4393 23L68.2273 23.012L65.8873 14.636H67.0513L68.8753 21.728L70.8913 14.636H72.1153L74.0353 21.704L75.8713 14.636H77.0473ZM84.2424 19.46C84.2424 19.668 84.2304 19.888 84.2064 20.12H78.9504C78.9904 20.768 79.2104 21.276 79.6104 21.644C80.0184 22.004 80.5104 22.184 81.0864 22.184C81.5584 22.184 81.9504 22.076 82.2624 21.86C82.5824 21.636 82.8064 21.34 82.9344 20.972H84.1104C83.9344 21.604 83.5824 22.12 83.0544 22.52C82.5264 22.912 81.8704 23.108 81.0864 23.108C80.4624 23.108 79.9024 22.968 79.4064 22.688C78.9184 22.408 78.5344 22.012 78.2544 21.5C77.9744 20.98 77.8344 20.38 77.8344 19.7C77.8344 19.02 77.9704 18.424 78.2424 17.912C78.5144 17.4 78.8944 17.008 79.3824 16.736C79.8784 16.456 80.4464 16.316 81.0864 16.316C81.7104 16.316 82.2624 16.452 82.7424 16.724C83.2224 16.996 83.5904 17.372 83.8464 17.852C84.1104 18.324 84.2424 18.86 84.2424 19.46ZM83.1144 19.232C83.1144 18.816 83.0224 18.46 82.8384 18.164C82.6544 17.86 82.4024 17.632 82.0824 17.48C81.7704 17.32 81.4224 17.24 81.0384 17.24C80.4864 17.24 80.0144 17.416 79.6224 17.768C79.2384 18.12 79.0184 18.608 78.9624 19.232H83.1144ZM91.6838 19.46C91.6838 19.668 91.6718 19.888 91.6478 20.12H86.3918C86.4318 20.768 86.6518 21.276 87.0518 21.644C87.4598 22.004 87.9518 22.184 88.5278 22.184C88.9998 22.184 89.3918 22.076 89.7038 21.86C90.0238 21.636 90.2478 21.34 90.3758 20.972H91.5518C91.3758 21.604 91.0238 22.12 90.4958 22.52C89.9678 22.912 89.3118 23.108 88.5278 23.108C87.9038 23.108 87.3438 22.968 86.8478 22.688C86.3598 22.408 85.9758 22.012 85.6958 21.5C85.4158 20.98 85.2758 20.38 85.2758 19.7C85.2758 19.02 85.4118 18.424 85.6838 17.912C85.9558 17.4 86.3358 17.008 86.8238 16.736C87.3198 16.456 87.8878 16.316 88.5278 16.316C89.1518 16.316 89.7038 16.452 90.1838 16.724C90.6638 16.996 91.0318 17.372 91.2878 17.852C91.5518 18.324 91.6838 18.86 91.6838 19.46ZM90.5558 19.232C90.5558 18.816 90.4638 18.46 90.2798 18.164C90.0958 17.86 89.8438 17.632 89.5238 17.48C89.2118 17.32 88.8638 17.24 88.4798 17.24C87.9278 17.24 87.4558 17.416 87.0638 17.768C86.6798 18.12 86.4598 18.608 86.4038 19.232H90.5558ZM96.7972 23L94.2172 20.096V23H93.1252V14.12H94.2172V19.34L96.7492 16.424H98.2732L95.1772 19.7L98.2852 23H96.7972ZM102.296 16.508C102.352 15.772 102.636 15.196 103.148 14.78C103.66 14.364 104.324 14.156 105.14 14.156C105.684 14.156 106.152 14.256 106.544 14.456C106.944 14.648 107.244 14.912 107.444 15.248C107.652 15.584 107.756 15.964 107.756 16.388C107.756 16.884 107.612 17.312 107.324 17.672C107.044 18.032 106.676 18.264 106.22 18.368V18.428C106.74 18.556 107.152 18.808 107.456 19.184C107.76 19.56 107.912 20.052 107.912 20.66C107.912 21.116 107.808 21.528 107.6 21.896C107.392 22.256 107.08 22.54 106.664 22.748C106.248 22.956 105.748 23.06 105.164 23.06C104.316 23.06 103.62 22.84 103.076 22.4C102.532 21.952 102.228 21.32 102.164 20.504H103.22C103.276 20.984 103.472 21.376 103.808 21.68C104.144 21.984 104.592 22.136 105.152 22.136C105.712 22.136 106.136 21.992 106.424 21.704C106.72 21.408 106.868 21.028 106.868 20.564C106.868 19.964 106.668 19.532 106.268 19.268C105.868 19.004 105.264 18.872 104.456 18.872H104.18V17.96H104.468C105.204 17.952 105.76 17.832 106.136 17.6C106.512 17.36 106.7 16.992 106.7 16.496C106.7 16.072 106.56 15.732 106.28 15.476C106.008 15.22 105.616 15.092 105.104 15.092C104.608 15.092 104.208 15.22 103.904 15.476C103.6 15.732 103.42 16.076 103.364 16.508H102.296ZM112.358 19.688C112.358 19.016 112.494 18.428 112.766 17.924C113.038 17.412 113.41 17.016 113.882 16.736C114.362 16.456 114.894 16.316 115.478 16.316C116.054 16.316 116.554 16.44 116.978 16.688C117.402 16.936 117.718 17.248 117.926 17.624V16.424H119.03V23H117.926V21.776C117.71 22.16 117.386 22.48 116.954 22.736C116.53 22.984 116.034 23.108 115.466 23.108C114.882 23.108 114.354 22.964 113.882 22.676C113.41 22.388 113.038 21.984 112.766 21.464C112.494 20.944 112.358 20.352 112.358 19.688ZM117.926 19.7C117.926 19.204 117.826 18.772 117.626 18.404C117.426 18.036 117.154 17.756 116.81 17.564C116.474 17.364 116.102 17.264 115.694 17.264C115.286 17.264 114.914 17.36 114.578 17.552C114.242 17.744 113.974 18.024 113.774 18.392C113.574 18.76 113.474 19.192 113.474 19.688C113.474 20.192 113.574 20.632 113.774 21.008C113.974 21.376 114.242 21.66 114.578 21.86C114.914 22.052 115.286 22.148 115.694 22.148C116.102 22.148 116.474 22.052 116.81 21.86C117.154 21.66 117.426 21.376 117.626 21.008C117.826 20.632 117.926 20.196 117.926 19.7ZM123.551 17.324H122.171V23H121.079V17.324H120.227V16.424H121.079V15.956C121.079 15.22 121.267 14.684 121.643 14.348C122.027 14.004 122.639 13.832 123.479 13.832V14.744C122.999 14.744 122.659 14.84 122.459 15.032C122.267 15.216 122.171 15.524 122.171 15.956V16.424H123.551V17.324ZM126.156 17.324V21.2C126.156 21.52 126.224 21.748 126.36 21.884C126.496 22.012 126.732 22.076 127.068 22.076H127.872V23H126.888C126.28 23 125.824 22.86 125.52 22.58C125.216 22.3 125.064 21.84 125.064 21.2V17.324H124.212V16.424H125.064V14.768H126.156V16.424H127.872V17.324H126.156ZM135.195 19.46C135.195 19.668 135.183 19.888 135.159 20.12H129.903C129.943 20.768 130.163 21.276 130.563 21.644C130.971 22.004 131.463 22.184 132.039 22.184C132.511 22.184 132.903 22.076 133.215 21.86C133.535 21.636 133.759 21.34 133.887 20.972H135.063C134.887 21.604 134.535 22.12 134.007 22.52C133.479 22.912 132.823 23.108 132.039 23.108C131.415 23.108 130.855 22.968 130.359 22.688C129.871 22.408 129.487 22.012 129.207 21.5C128.927 20.98 128.787 20.38 128.787 19.7C128.787 19.02 128.923 18.424 129.195 17.912C129.467 17.4 129.847 17.008 130.335 16.736C130.831 16.456 131.399 16.316 132.039 16.316C132.663 16.316 133.215 16.452 133.695 16.724C134.175 16.996 134.543 17.372 134.799 17.852C135.063 18.324 135.195 18.86 135.195 19.46ZM134.067 19.232C134.067 18.816 133.975 18.46 133.791 18.164C133.607 17.86 133.355 17.632 133.035 17.48C132.723 17.32 132.375 17.24 131.991 17.24C131.439 17.24 130.967 17.416 130.575 17.768C130.191 18.12 129.971 18.608 129.915 19.232H134.067ZM137.729 17.492C137.921 17.116 138.193 16.824 138.545 16.616C138.905 16.408 139.341 16.304 139.853 16.304V17.432H139.565C138.341 17.432 137.729 18.096 137.729 19.424V23H136.637V16.424H137.729V17.492ZM74.7228 35.324V39.2C74.7228 39.52 74.7908 39.748 74.9268 39.884C75.0628 40.012 75.2988 40.076 75.6348 40.076H76.4388V41H75.4548C74.8468 41 74.3908 40.86 74.0868 40.58C73.7828 40.3 73.6308 39.84 73.6308 39.2V35.324H72.7788V34.424H73.6308V32.768H74.7228V34.424H76.4388V35.324H74.7228ZM81.0259 34.304C81.5219 34.304 81.9699 34.412 82.3699 34.628C82.7699 34.836 83.0819 35.152 83.3059 35.576C83.5379 36 83.6539 36.516 83.6539 37.124V41H82.5739V37.28C82.5739 36.624 82.4099 36.124 82.0819 35.78C81.7539 35.428 81.3059 35.252 80.7379 35.252C80.1619 35.252 79.7019 35.432 79.3579 35.792C79.0219 36.152 78.8539 36.676 78.8539 37.364V41H77.7619V32.12H78.8539V35.36C79.0699 35.024 79.3659 34.764 79.7419 34.58C80.1259 34.396 80.5539 34.304 81.0259 34.304ZM91.4377 37.46C91.4377 37.668 91.4257 37.888 91.4017 38.12H86.1457C86.1857 38.768 86.4057 39.276 86.8057 39.644C87.2137 40.004 87.7057 40.184 88.2817 40.184C88.7537 40.184 89.1457 40.076 89.4577 39.86C89.7777 39.636 90.0017 39.34 90.1297 38.972H91.3057C91.1297 39.604 90.7777 40.12 90.2497 40.52C89.7217 40.912 89.0657 41.108 88.2817 41.108C87.6577 41.108 87.0977 40.968 86.6017 40.688C86.1137 40.408 85.7297 40.012 85.4497 39.5C85.1697 38.98 85.0297 38.38 85.0297 37.7C85.0297 37.02 85.1657 36.424 85.4377 35.912C85.7097 35.4 86.0897 35.008 86.5777 34.736C87.0737 34.456 87.6417 34.316 88.2817 34.316C88.9057 34.316 89.4577 34.452 89.9377 34.724C90.4177 34.996 90.7857 35.372 91.0417 35.852C91.3057 36.324 91.4377 36.86 91.4377 37.46ZM90.3097 37.232C90.3097 36.816 90.2177 36.46 90.0337 36.164C89.8497 35.86 89.5977 35.632 89.2777 35.48C88.9657 35.32 88.6177 35.24 88.2337 35.24C87.6817 35.24 87.2097 35.416 86.8177 35.768C86.4337 36.12 86.2137 36.608 86.1577 37.232H90.3097ZM97.1703 32.12V41H96.0783V32.12H97.1703ZM98.6234 37.688C98.6234 37.016 98.7594 36.428 99.0314 35.924C99.3034 35.412 99.6754 35.016 100.147 34.736C100.627 34.456 101.159 34.316 101.743 34.316C102.319 34.316 102.819 34.44 103.243 34.688C103.667 34.936 103.983 35.248 104.191 35.624V34.424H105.295V41H104.191V39.776C103.975 40.16 103.651 40.48 103.219 40.736C102.795 40.984 102.299 41.108 101.731 41.108C101.147 41.108 100.619 40.964 100.147 40.676C99.6754 40.388 99.3034 39.984 99.0314 39.464C98.7594 38.944 98.6234 38.352 98.6234 37.688ZM104.191 37.7C104.191 37.204 104.091 36.772 103.891 36.404C103.691 36.036 103.419 35.756 103.075 35.564C102.739 35.364 102.367 35.264 101.959 35.264C101.551 35.264 101.179 35.36 100.843 35.552C100.507 35.744 100.239 36.024 100.039 36.392C99.8394 36.76 99.7394 37.192 99.7394 37.688C99.7394 38.192 99.8394 38.632 100.039 39.008C100.239 39.376 100.507 39.66 100.843 39.86C101.179 40.052 101.551 40.148 101.959 40.148C102.367 40.148 102.739 40.052 103.075 39.86C103.419 39.66 103.691 39.376 103.891 39.008C104.091 38.632 104.191 38.196 104.191 37.7ZM112.973 34.424V41H111.881V40.028C111.673 40.364 111.381 40.628 111.005 40.82C110.637 41.004 110.229 41.096 109.781 41.096C109.269 41.096 108.809 40.992 108.401 40.784C107.993 40.568 107.669 40.248 107.429 39.824C107.197 39.4 107.081 38.884 107.081 38.276V34.424H108.161V38.132C108.161 38.78 108.325 39.28 108.653 39.632C108.981 39.976 109.429 40.148 109.997 40.148C110.581 40.148 111.041 39.968 111.377 39.608C111.713 39.248 111.881 38.724 111.881 38.036V34.424H112.973ZM118.021 34.304C118.821 34.304 119.469 34.548 119.965 35.036C120.461 35.516 120.709 36.212 120.709 37.124V41H119.629V37.28C119.629 36.624 119.465 36.124 119.137 35.78C118.809 35.428 118.361 35.252 117.793 35.252C117.217 35.252 116.757 35.432 116.413 35.792C116.077 36.152 115.909 36.676 115.909 37.364V41H114.817V34.424H115.909V35.36C116.125 35.024 116.417 34.764 116.785 34.58C117.161 34.396 117.573 34.304 118.021 34.304ZM122.084 37.7C122.084 37.02 122.22 36.428 122.492 35.924C122.764 35.412 123.14 35.016 123.62 34.736C124.108 34.456 124.664 34.316 125.288 34.316C126.096 34.316 126.76 34.512 127.28 34.904C127.808 35.296 128.156 35.84 128.324 36.536H127.148C127.036 36.136 126.816 35.82 126.488 35.588C126.168 35.356 125.768 35.24 125.288 35.24C124.664 35.24 124.16 35.456 123.776 35.888C123.392 36.312 123.2 36.916 123.2 37.7C123.2 38.492 123.392 39.104 123.776 39.536C124.16 39.968 124.664 40.184 125.288 40.184C125.768 40.184 126.168 40.072 126.488 39.848C126.808 39.624 127.028 39.304 127.148 38.888H128.324C128.148 39.56 127.796 40.1 127.268 40.508C126.74 40.908 126.08 41.108 125.288 41.108C124.664 41.108 124.108 40.968 123.62 40.688C123.14 40.408 122.764 40.012 122.492 39.5C122.22 38.988 122.084 38.388 122.084 37.7ZM133.045 34.304C133.541 34.304 133.989 34.412 134.389 34.628C134.789 34.836 135.101 35.152 135.325 35.576C135.557 36 135.673 36.516 135.673 37.124V41H134.593V37.28C134.593 36.624 134.429 36.124 134.101 35.78C133.773 35.428 133.325 35.252 132.757 35.252C132.181 35.252 131.721 35.432 131.377 35.792C131.041 36.152 130.873 36.676 130.873 37.364V41H129.781V32.12H130.873V35.36C131.089 35.024 131.385 34.764 131.761 34.58C132.145 34.396 132.573 34.304 133.045 34.304Z" fill="white"/>
<path d="M211.5 51.9815H210.543C197.683 51.4833 187.5 40.9872 187.5 28C187.5 14.6927 198.21 4 211.5 4C224.791 4 235.5 14.6751 235.5 27.9815C235.5 41.2893 224.808 51.9815 211.5 51.9815Z" fill="#0D141E" stroke="url(#paint1_linear_178_4556)" stroke-width="2"/>
<path d="M206.972 19.5658C209.945 22.5451 213.448 25.9583 215.03 29.6545C216.706 33.5701 215.233 38.0359 213.45 40.8869C211.668 43.7379 210.502 46.0649 211.086 46.5337C211.669 47.0024 215.701 44.1419 216.625 39.272C217.629 33.9813 217.111 29.9254 213.062 25.0783C208.562 19.6905 204.057 16.2389 202.274 15.0352C200.492 13.8315 200.201 10.3463 203.893 11.1076C207.587 11.8677 218.827 16.9366 221.58 22.5127C224.333 28.0887 218.989 39.6844 217.401 42.3771C219.734 36.7699 223.199 27.8034 220.673 22.8927C218.146 17.9821 208.364 13.7044 205.999 12.9767C203.635 12.249 201.562 11.9624 202.663 13.3891C203.764 14.8158 206.809 16.4307 210.826 20.5813C214.843 24.7318 217.174 28.0264 218.081 32.0499C218.989 36.0733 217.985 40.8257 216.202 43.7714C214.42 46.7171 211.83 48.5874 210.177 47.6367C208.525 46.6859 211.678 42.0234 213.125 39.3044C214.678 36.3887 216.138 32.1122 213.417 27.9305C210.696 23.7487 208.98 21.7526 206.97 19.567L206.972 19.5658Z" fill="url(#paint2_linear_178_4556)"/>
<defs>
<linearGradient id="paint0_linear_178_4556" x1="128.75" y1="0" x2="128.75" y2="56" gradientUnits="userSpaceOnUse">
<stop stop-color="#4BD4FF"/>
<stop offset="1" stop-color="#007AD5"/>
</linearGradient>
<linearGradient id="paint1_linear_178_4556" x1="211.5" y1="3" x2="211.5" y2="53" gradientUnits="userSpaceOnUse">
<stop stop-color="#4BD4FF"/>
<stop offset="1" stop-color="#007AD5"/>
</linearGradient>
<linearGradient id="paint2_linear_178_4556" x1="205.377" y1="9.99626" x2="219.611" y2="45.8408" gradientUnits="userSpaceOnUse">
<stop offset="0.21" stop-color="#29C5F6"/>
<stop offset="0.51" stop-color="#1B88DD"/>
<stop offset="0.87" stop-color="#29C5F6"/>
</linearGradient>
</defs>
</svg>
