<svg width="100" height="100" viewBox="0 0 100 100" fill="none" xmlns="http://www.w3.org/2000/svg">
<path d="M50 98.963H49V98.9901C22.2983 98.4621 1 76.8338 1 50C1 22.8326 22.8686 1 50 1C77.1324 1 99 22.7965 99 49.963C99 77.1309 77.1679 98.963 50 98.963Z" fill="#0D141E" stroke="url(#paint0_linear_178_3998)" stroke-width="2"/>
<path d="M40.9432 33.1316C46.891 39.0901 53.8955 45.9166 57.0606 53.309C60.4121 61.1401 57.4652 70.0719 53.9004 75.7738C50.3356 81.4757 48.0041 86.1298 49.1711 87.0673C50.3381 88.0049 58.4017 82.2838 60.2503 72.544C62.2582 61.9626 61.2212 53.8509 53.1232 44.1566C44.123 33.381 35.113 26.4778 31.5483 24.0704C27.9835 21.663 27.4025 14.6927 34.787 16.2153C42.1739 17.7355 64.6535 27.8733 70.16 39.0254C75.6665 50.1775 64.9771 73.3688 61.8022 78.7542C66.4678 67.5398 73.3987 49.6068 68.3458 39.7855C63.2928 29.9641 43.7283 21.4089 38.999 19.9534C34.2697 18.4979 30.1238 17.9249 32.3255 20.7782C34.5271 23.6316 40.6171 26.8614 48.6513 35.1625C56.6855 43.4637 61.3486 50.0528 63.1629 58.0997C64.9772 66.1467 62.9692 75.6515 59.4044 81.5428C55.8397 87.4342 50.6592 91.1747 47.3544 89.2733C44.0495 87.3719 50.3552 78.0469 53.2507 72.6087C56.357 66.7773 59.277 58.2244 53.8342 49.8609C48.3914 41.4975 44.959 37.5052 40.9407 33.134L40.9432 33.1316Z" fill="url(#paint1_linear_178_3998)"/>
<defs>
<linearGradient id="paint0_linear_178_3998" x1="50" y1="0" x2="50" y2="100" gradientUnits="userSpaceOnUse">
<stop stop-color="#4BD4FF"/>
<stop offset="1" stop-color="#007AD5"/>
</linearGradient>
<linearGradient id="paint1_linear_178_3998" x1="37.7535" y1="13.9925" x2="66.2219" y2="85.6816" gradientUnits="userSpaceOnUse">
<stop offset="0.21" stop-color="#29C5F6"/>
<stop offset="0.51" stop-color="#1B88DD"/>
<stop offset="0.87" stop-color="#29C5F6"/>
</linearGradient>
</defs>
</svg>
