<svg width="316" height="195" viewBox="0 0 316 195" fill="none" xmlns="http://www.w3.org/2000/svg">
<path d="M68 109.668H76.1297C79.4256 109.668 81.4979 111.28 81.4979 114.015C81.4979 115.958 80.4872 117.262 79.0277 117.799C81.4193 118.181 83.066 119.895 83.066 122.579C83.066 125.546 80.7809 127.565 76.9277 127.565H68V109.666V109.668ZM75.7597 117.16C78.0448 117.16 79.3469 116.187 79.3469 114.398C79.3469 112.608 78.0448 111.56 75.7597 111.56H70.1533V117.16H75.7597ZM76.5299 125.675C79.2128 125.675 80.7555 124.473 80.7555 122.299C80.7555 120.124 79.2151 119 76.5299 119H70.1533V125.675H76.5299Z" fill="#29C5F6"/>
<path d="M105.013 118.617C105.013 123.886 100.974 127.874 95.6062 127.874C90.2381 127.874 86.2275 123.886 86.2275 118.617C86.2275 113.349 90.2658 109.361 95.6062 109.361C100.947 109.361 105.013 113.349 105.013 118.617ZM102.806 118.617C102.806 114.424 99.6445 111.304 95.6062 111.304C91.5679 111.304 88.4317 114.424 88.4317 118.617C88.4317 122.811 91.5934 125.931 95.6062 125.931C99.619 125.931 102.806 122.811 102.806 118.617Z" fill="#29C5F6"/>
<path d="M127.438 118.617C127.438 123.886 123.4 127.874 118.032 127.874C112.664 127.874 108.653 123.886 108.653 118.617C108.653 113.349 112.692 109.361 118.032 109.361C123.372 109.361 127.438 113.349 127.438 118.617ZM125.232 118.617C125.232 114.424 122.07 111.304 118.032 111.304C113.994 111.304 110.857 114.424 110.857 118.617C110.857 122.811 114.019 125.931 118.032 125.931C122.045 125.931 125.232 122.811 125.232 118.617Z" fill="#29C5F6"/>
<path d="M131.847 109.668H133.973L140.562 118.208L147.151 109.668H149.251V127.567H147.126V112.813L141.228 120.434H139.926L133.975 112.813V127.567H131.849V109.668H131.847Z" fill="#29C5F6"/>
<path d="M154.378 109.668H167.213V111.56H156.532V117.031H165.274V118.923H156.532V125.673H167.613V127.565H154.381V109.666L154.378 109.668Z" fill="#29C5F6"/>
<path d="M171.383 109.668H179.725C183.472 109.668 185.651 111.689 185.651 114.578C185.651 117.033 184.136 118.9 181.319 119.41L187.298 127.567H184.746L178.955 119.614H173.534V127.567H171.38V109.668H171.383ZM179.593 117.747C182.063 117.747 183.472 116.648 183.472 114.653C183.472 112.659 182.063 111.56 179.593 111.56H173.536V117.747H179.593Z" fill="#29C5F6"/>
<path d="M197.342 109.566H199.389L207.653 127.567H205.368L203.108 122.735H193.542L191.336 127.567H189.079L197.342 109.566ZM202.417 120.892L198.351 112.172L194.285 120.892H202.415H202.417Z" fill="#29C5F6"/>
<path d="M210.972 109.668H212.832L224.336 123.961V109.668H226.436V127.567H224.602L213.07 113.222V127.567H210.97V109.668H210.972Z" fill="#29C5F6"/>
<path d="M230.793 118.617C230.793 113.222 234.938 109.361 240.385 109.361C242.723 109.361 244.664 109.924 246.257 111.023V113.12C244.504 111.894 242.51 111.304 240.519 111.304C236.24 111.304 233 114.346 233 118.642C233 122.937 236.296 125.929 240.334 125.929C242.3 125.929 244.187 125.366 245.462 124.139V117.286H247.587V124.958C246.125 126.594 243.521 127.874 240.334 127.874C234.966 127.874 230.796 124.064 230.796 118.617H230.793Z" fill="#29C5F6"/>
<path d="M120 142.735C120 139.793 122.262 137.685 125.232 137.685C126.319 137.685 127.246 137.908 128.058 138.397V139.555C127.246 139.038 126.377 138.747 125.246 138.747C122.97 138.747 121.203 140.434 121.203 142.735C121.203 145.036 122.986 146.723 125.29 146.723C126.448 146.723 127.436 146.416 128.275 145.775V146.933C127.464 147.491 126.421 147.783 125.232 147.783C122.276 147.783 120 145.704 120 142.733V142.735Z" fill="white"/>
<path d="M136.526 137.796H137.643L142.151 147.616H140.904L139.671 144.981H134.454L133.251 147.616H132.018L136.526 137.796ZM139.294 143.975L137.076 139.219L134.858 143.975H139.294Z" fill="white"/>
<path d="M146.57 137.852H150.847C152.933 137.852 154.122 138.983 154.122 140.585C154.122 142.188 152.933 143.361 150.847 143.361H147.745V147.614H146.57V137.85V137.852ZM150.759 142.33C152.151 142.33 152.947 141.729 152.947 140.614C152.947 139.499 152.149 138.885 150.759 138.885H147.745V142.33H150.759Z" fill="white"/>
<path d="M158.877 137.852H160.052V147.616H158.877V137.852Z" fill="white"/>
<path d="M168.094 138.885H164.629V137.852H172.775V138.885H169.282V147.616H168.094V138.885Z" fill="white"/>
<path d="M179.357 137.796H180.475L184.982 147.616H183.736L182.503 144.981H177.285L176.082 147.616H174.85L179.357 137.796ZM182.126 143.975L179.908 139.219L177.69 143.975H182.126Z" fill="white"/>
<path d="M189.402 137.852H190.577V146.583H196.186V147.616H189.402V137.852Z" fill="white"/>
<path d="M150.632 54.1829C154.931 58.4202 159.993 63.2748 162.281 68.5317C164.703 74.1007 162.573 80.4524 159.997 84.5073C157.42 88.5621 155.735 91.8718 156.579 92.5385C157.422 93.2052 163.25 89.1368 164.586 82.2104C166.037 74.6856 165.288 68.9171 159.435 62.0232C152.93 54.3602 146.418 49.4511 143.842 47.7391C141.265 46.0272 140.845 41.0703 146.183 42.1531C151.521 43.2341 167.768 50.4435 171.748 58.3742C175.728 66.3048 168.002 82.797 165.708 86.6268C169.08 78.6518 174.089 65.899 170.437 58.9147C166.785 51.9304 152.645 45.8464 149.227 44.8114C145.809 43.7764 142.812 43.3689 144.403 45.398C145.995 47.4271 150.396 49.7239 156.203 55.6272C162.01 61.5304 165.38 66.2161 166.691 71.9386C168.002 77.6611 166.551 84.4203 163.975 88.6099C161.398 92.7994 157.654 95.4594 155.266 94.1073C152.877 92.7551 157.434 86.1238 159.527 82.2565C161.772 78.1096 163.883 72.0273 159.949 66.0797C156.015 60.1322 153.534 57.2931 150.63 54.1846L150.632 54.1829Z" fill="url(#paint0_linear_178_4625)"/>
<rect x="1" y="1" width="314" height="193" stroke="url(#paint1_linear_178_4625)" stroke-width="2"/>
<defs>
<linearGradient id="paint0_linear_178_4625" x1="148.327" y1="40.5724" x2="168.333" y2="91.7754" gradientUnits="userSpaceOnUse">
<stop offset="0.21" stop-color="#29C5F6"/>
<stop offset="0.51" stop-color="#1B88DD"/>
<stop offset="0.87" stop-color="#29C5F6"/>
</linearGradient>
<linearGradient id="paint1_linear_178_4625" x1="158" y1="0" x2="158" y2="195" gradientUnits="userSpaceOnUse">
<stop stop-color="#4BD4FF"/>
<stop offset="1" stop-color="#007AD5"/>
</linearGradient>
</defs>
</svg>
