<svg width="51" height="18" viewBox="0 0 51 18" fill="none" xmlns="http://www.w3.org/2000/svg">
<rect y="9.15527e-05" width="51" height="18" rx="9" fill="#29C5F6"/>
<path d="M12.387 8.85909C12.387 8.24709 12.525 7.69809 12.801 7.21209C13.077 6.72009 13.452 6.33609 13.926 6.06009C14.406 5.78409 14.937 5.64609 15.519 5.64609C16.203 5.64609 16.8 5.81109 17.31 6.14109C17.82 6.47109 18.192 6.93909 18.426 7.54509H17.445C17.271 7.16709 17.019 6.87609 16.689 6.67209C16.365 6.46809 15.975 6.36609 15.519 6.36609C15.081 6.36609 14.688 6.46809 14.34 6.67209C13.992 6.87609 13.719 7.16709 13.521 7.54509C13.323 7.91709 13.224 8.35509 13.224 8.85909C13.224 9.35709 13.323 9.79509 13.521 10.1731C13.719 10.5451 13.992 10.8331 14.34 11.0371C14.688 11.2411 15.081 11.3431 15.519 11.3431C15.975 11.3431 16.365 11.2441 16.689 11.0461C17.019 10.8421 17.271 10.5511 17.445 10.1731H18.426C18.192 10.7731 17.82 11.2381 17.31 11.5681C16.8 11.8921 16.203 12.0541 15.519 12.0541C14.937 12.0541 14.406 11.9191 13.926 11.6491C13.452 11.3731 13.077 10.9921 12.801 10.5061C12.525 10.0201 12.387 9.47109 12.387 8.85909ZM20.4641 5.34009V12.0001H19.6451V5.34009H20.4641ZM21.554 9.51609C21.554 9.01209 21.656 8.57109 21.86 8.19309C22.064 7.80909 22.343 7.51209 22.697 7.30209C23.057 7.09209 23.456 6.98709 23.894 6.98709C24.326 6.98709 24.701 7.08009 25.019 7.26609C25.337 7.45209 25.574 7.68609 25.73 7.96809V7.06809H26.558V12.0001H25.73V11.0821C25.568 11.3701 25.325 11.6101 25.001 11.8021C24.683 11.9881 24.311 12.0811 23.885 12.0811C23.447 12.0811 23.051 11.9731 22.697 11.7571C22.343 11.5411 22.064 11.2381 21.86 10.8481C21.656 10.4581 21.554 10.0141 21.554 9.51609ZM25.73 9.52509C25.73 9.15309 25.655 8.82909 25.505 8.55309C25.355 8.27709 25.151 8.06709 24.893 7.92309C24.641 7.77309 24.362 7.69809 24.056 7.69809C23.75 7.69809 23.471 7.77009 23.219 7.91409C22.967 8.05809 22.766 8.26809 22.616 8.54409C22.466 8.82009 22.391 9.14409 22.391 9.51609C22.391 9.89409 22.466 10.2241 22.616 10.5061C22.766 10.7821 22.967 10.9951 23.219 11.1451C23.471 11.2891 23.75 11.3611 24.056 11.3611C24.362 11.3611 24.641 11.2891 24.893 11.1451C25.151 10.9951 25.355 10.7821 25.505 10.5061C25.655 10.2241 25.73 9.89709 25.73 9.52509ZM28.365 6.26709C28.209 6.26709 28.077 6.21309 27.969 6.10509C27.861 5.99709 27.807 5.86509 27.807 5.70909C27.807 5.55309 27.861 5.42109 27.969 5.31309C28.077 5.20509 28.209 5.15109 28.365 5.15109C28.515 5.15109 28.641 5.20509 28.743 5.31309C28.851 5.42109 28.905 5.55309 28.905 5.70909C28.905 5.86509 28.851 5.99709 28.743 6.10509C28.641 6.21309 28.515 6.26709 28.365 6.26709ZM28.761 7.06809V12.0001H27.942V7.06809H28.761ZM36.0879 6.97809C36.4719 6.97809 36.8139 7.05909 37.1139 7.22109C37.4139 7.37709 37.6509 7.61409 37.8249 7.93209C37.9989 8.25009 38.0859 8.63709 38.0859 9.09309V12.0001H37.2759V9.21009C37.2759 8.71809 37.1529 8.34309 36.9069 8.08509C36.6669 7.82109 36.3399 7.68909 35.9259 7.68909C35.4999 7.68909 35.1609 7.82709 34.9089 8.10309C34.6569 8.37309 34.5309 8.76609 34.5309 9.28209V12.0001H33.7209V9.21009C33.7209 8.71809 33.5979 8.34309 33.3519 8.08509C33.1119 7.82109 32.7849 7.68909 32.3709 7.68909C31.9449 7.68909 31.6059 7.82709 31.3539 8.10309C31.1019 8.37309 30.9759 8.76609 30.9759 9.28209V12.0001H30.1569V7.06809H30.9759V7.77909C31.1379 7.52109 31.3539 7.32309 31.6239 7.18509C31.8999 7.04709 32.2029 6.97809 32.5329 6.97809C32.9469 6.97809 33.3129 7.07109 33.6309 7.25709C33.9489 7.44309 34.1859 7.71609 34.3419 8.07609C34.4799 7.72809 34.7079 7.45809 35.0259 7.26609C35.3439 7.07409 35.6979 6.97809 36.0879 6.97809Z" fill="black"/>
</svg>
