<svg width="22" height="16" viewBox="0 0 22 16" fill="none" xmlns="http://www.w3.org/2000/svg">
<g clip-path="url(#clip0_842_1340)">
<path d="M0 0H22V16H0V0Z" fill="#D80027"/>
<path d="M10.1122 11L9.68775 10.3433L8.90453 10.5285L9.42522 9.93499L9.0008 9.2783L9.74901 9.56876L10.2653 8.97521L10.2084 9.74977L10.9566 10.0402L10.1734 10.2254L10.1122 11ZM12.9037 4.3826L12.4618 5.03087L12.9694 5.63283L12.1949 5.43078L11.753 6.08326L11.7092 5.3087L10.9348 5.10664L11.6874 4.82881L11.6436 4.05426L12.1512 4.65622L12.9037 4.3826ZM10.5235 2L10.436 2.77035L11.171 3.09027L10.3835 3.25023L10.2959 4.02058L9.8934 3.34705L9.11018 3.50702L9.64837 2.93031L9.24582 2.26099L9.98091 2.57671L10.5235 2ZM13 7.74182L12.3481 8.20065L12.6018 8.93732L11.9499 8.48269L11.2979 8.94574L11.543 8.20486L10.891 7.75444L11.6961 7.75023L11.9411 7.00935L12.1949 7.74602L13 7.74182ZM5.22037 2.87979L5.97733 5.1319H8.43636L6.44988 6.51684L7.20684 8.76894L5.22037 7.37979L3.22951 8.76894L3.99085 6.51684L2 5.1319H4.4634L5.22037 2.87979Z" fill="#FFDA44"/>
</g>
<defs>
<clipPath id="clip0_842_1340">
<rect width="22" height="16" fill="white"/>
</clipPath>
</defs>
</svg>
