<svg width="91" height="26" viewBox="0 0 91 26" fill="none" xmlns="http://www.w3.org/2000/svg">
<rect width="91" height="26" rx="13" fill="#29C5F6"/>
<path d="M12.516 12.812C12.516 11.996 12.7 11.264 13.068 10.616C13.436 9.96 13.936 9.448 14.568 9.08C15.208 8.712 15.916 8.528 16.692 8.528C17.604 8.528 18.4 8.748 19.08 9.188C19.76 9.628 20.256 10.252 20.568 11.06H19.26C19.028 10.556 18.692 10.168 18.252 9.896C17.82 9.624 17.3 9.488 16.692 9.488C16.108 9.488 15.584 9.624 15.12 9.896C14.656 10.168 14.292 10.556 14.028 11.06C13.764 11.556 13.632 12.14 13.632 12.812C13.632 13.476 13.764 14.06 14.028 14.564C14.292 15.06 14.656 15.444 15.12 15.716C15.584 15.988 16.108 16.124 16.692 16.124C17.3 16.124 17.82 15.992 18.252 15.728C18.692 15.456 19.028 15.068 19.26 14.564H20.568C20.256 15.364 19.76 15.984 19.08 16.424C18.4 16.856 17.604 17.072 16.692 17.072C15.916 17.072 15.208 16.892 14.568 16.532C13.936 16.164 13.436 15.656 13.068 15.008C12.7 14.36 12.516 13.628 12.516 12.812ZM25.0615 17.108C24.4455 17.108 23.8855 16.968 23.3815 16.688C22.8855 16.408 22.4935 16.012 22.2055 15.5C21.9255 14.98 21.7855 14.38 21.7855 13.7C21.7855 13.028 21.9295 12.436 22.2175 11.924C22.5135 11.404 22.9135 11.008 23.4175 10.736C23.9215 10.456 24.4855 10.316 25.1095 10.316C25.7335 10.316 26.2975 10.456 26.8015 10.736C27.3055 11.008 27.7015 11.4 27.9895 11.912C28.2855 12.424 28.4335 13.02 28.4335 13.7C28.4335 14.38 28.2815 14.98 27.9775 15.5C27.6815 16.012 27.2775 16.408 26.7655 16.688C26.2535 16.968 25.6855 17.108 25.0615 17.108ZM25.0615 16.148C25.4535 16.148 25.8215 16.056 26.1655 15.872C26.5095 15.688 26.7855 15.412 26.9935 15.044C27.2095 14.676 27.3175 14.228 27.3175 13.7C27.3175 13.172 27.2135 12.724 27.0055 12.356C26.7975 11.988 26.5255 11.716 26.1895 11.54C25.8535 11.356 25.4895 11.264 25.0975 11.264C24.6975 11.264 24.3295 11.356 23.9935 11.54C23.6655 11.716 23.4015 11.988 23.2015 12.356C23.0015 12.724 22.9015 13.172 22.9015 13.7C22.9015 14.236 22.9975 14.688 23.1895 15.056C23.3895 15.424 23.6535 15.7 23.9815 15.884C24.3095 16.06 24.6695 16.148 25.0615 16.148ZM33.0733 10.304C33.8733 10.304 34.5213 10.548 35.0173 11.036C35.5133 11.516 35.7613 12.212 35.7613 13.124V17H34.6813V13.28C34.6813 12.624 34.5173 12.124 34.1893 11.78C33.8613 11.428 33.4133 11.252 32.8453 11.252C32.2693 11.252 31.8093 11.432 31.4653 11.792C31.1293 12.152 30.9613 12.676 30.9613 13.364V17H29.8693V10.424H30.9613V11.36C31.1773 11.024 31.4693 10.764 31.8373 10.58C32.2133 10.396 32.6253 10.304 33.0733 10.304ZM40.7491 10.304C41.5491 10.304 42.1971 10.548 42.6931 11.036C43.1891 11.516 43.4371 12.212 43.4371 13.124V17H42.3571V13.28C42.3571 12.624 42.1931 12.124 41.8651 11.78C41.5371 11.428 41.0891 11.252 40.5211 11.252C39.9451 11.252 39.4851 11.432 39.1411 11.792C38.8051 12.152 38.6371 12.676 38.6371 13.364V17H37.5451V10.424H38.6371V11.36C38.8531 11.024 39.1451 10.764 39.5131 10.58C39.8891 10.396 40.3011 10.304 40.7491 10.304ZM51.2209 13.46C51.2209 13.668 51.2089 13.888 51.1849 14.12H45.9289C45.9689 14.768 46.1889 15.276 46.5889 15.644C46.9969 16.004 47.4889 16.184 48.0649 16.184C48.5369 16.184 48.9289 16.076 49.2409 15.86C49.5609 15.636 49.7849 15.34 49.9129 14.972H51.0889C50.9129 15.604 50.5609 16.12 50.0329 16.52C49.5049 16.912 48.8489 17.108 48.0649 17.108C47.4409 17.108 46.8809 16.968 46.3849 16.688C45.8969 16.408 45.5129 16.012 45.2329 15.5C44.9529 14.98 44.8129 14.38 44.8129 13.7C44.8129 13.02 44.9489 12.424 45.2209 11.912C45.4929 11.4 45.8729 11.008 46.3609 10.736C46.8569 10.456 47.4249 10.316 48.0649 10.316C48.6889 10.316 49.2409 10.452 49.7209 10.724C50.2009 10.996 50.5689 11.372 50.8249 11.852C51.0889 12.324 51.2209 12.86 51.2209 13.46ZM50.0929 13.232C50.0929 12.816 50.0009 12.46 49.8169 12.164C49.6329 11.86 49.3809 11.632 49.0609 11.48C48.7489 11.32 48.4009 11.24 48.0169 11.24C47.4649 11.24 46.9929 11.416 46.6009 11.768C46.2169 12.12 45.9969 12.608 45.9409 13.232H50.0929ZM52.2543 13.7C52.2543 13.02 52.3903 12.428 52.6623 11.924C52.9343 11.412 53.3103 11.016 53.7903 10.736C54.2783 10.456 54.8343 10.316 55.4583 10.316C56.2663 10.316 56.9303 10.512 57.4503 10.904C57.9783 11.296 58.3263 11.84 58.4943 12.536H57.3183C57.2063 12.136 56.9863 11.82 56.6583 11.588C56.3383 11.356 55.9383 11.24 55.4583 11.24C54.8343 11.24 54.3303 11.456 53.9463 11.888C53.5623 12.312 53.3703 12.916 53.3703 13.7C53.3703 14.492 53.5623 15.104 53.9463 15.536C54.3303 15.968 54.8343 16.184 55.4583 16.184C55.9383 16.184 56.3383 16.072 56.6583 15.848C56.9783 15.624 57.1983 15.304 57.3183 14.888H58.4943C58.3183 15.56 57.9663 16.1 57.4383 16.508C56.9103 16.908 56.2503 17.108 55.4583 17.108C54.8343 17.108 54.2783 16.968 53.7903 16.688C53.3103 16.408 52.9343 16.012 52.6623 15.5C52.3903 14.988 52.2543 14.388 52.2543 13.7ZM61.2833 11.324V15.2C61.2833 15.52 61.3513 15.748 61.4873 15.884C61.6233 16.012 61.8593 16.076 62.1953 16.076H62.9993V17H62.0153C61.4073 17 60.9513 16.86 60.6473 16.58C60.3433 16.3 60.1913 15.84 60.1913 15.2V11.324H59.3393V10.424H60.1913V8.768H61.2833V10.424H62.9993V11.324H61.2833ZM70.3224 13.46C70.3224 13.668 70.3104 13.888 70.2864 14.12H65.0304C65.0704 14.768 65.2904 15.276 65.6904 15.644C66.0984 16.004 66.5904 16.184 67.1664 16.184C67.6384 16.184 68.0304 16.076 68.3424 15.86C68.6624 15.636 68.8864 15.34 69.0144 14.972H70.1904C70.0144 15.604 69.6624 16.12 69.1344 16.52C68.6064 16.912 67.9504 17.108 67.1664 17.108C66.5424 17.108 65.9824 16.968 65.4864 16.688C64.9984 16.408 64.6144 16.012 64.3344 15.5C64.0544 14.98 63.9144 14.38 63.9144 13.7C63.9144 13.02 64.0504 12.424 64.3224 11.912C64.5944 11.4 64.9744 11.008 65.4624 10.736C65.9584 10.456 66.5264 10.316 67.1664 10.316C67.7904 10.316 68.3424 10.452 68.8224 10.724C69.3024 10.996 69.6704 11.372 69.9264 11.852C70.1904 12.324 70.3224 12.86 70.3224 13.46ZM69.1944 13.232C69.1944 12.816 69.1024 12.46 68.9184 12.164C68.7344 11.86 68.4824 11.632 68.1624 11.48C67.8504 11.32 67.5024 11.24 67.1184 11.24C66.5664 11.24 66.0944 11.416 65.7024 11.768C65.3184 12.12 65.0984 12.608 65.0424 13.232H69.1944ZM71.3558 13.688C71.3558 13.016 71.4918 12.428 71.7638 11.924C72.0358 11.412 72.4078 11.016 72.8798 10.736C73.3598 10.456 73.8958 10.316 74.4878 10.316C74.9998 10.316 75.4758 10.436 75.9158 10.676C76.3558 10.908 76.6918 11.216 76.9238 11.6V8.12H78.0278V17H76.9238V15.764C76.7078 16.156 76.3878 16.48 75.9638 16.736C75.5398 16.984 75.0438 17.108 74.4758 17.108C73.8918 17.108 73.3598 16.964 72.8798 16.676C72.4078 16.388 72.0358 15.984 71.7638 15.464C71.4918 14.944 71.3558 14.352 71.3558 13.688ZM76.9238 13.7C76.9238 13.204 76.8238 12.772 76.6238 12.404C76.4238 12.036 76.1518 11.756 75.8078 11.564C75.4718 11.364 75.0998 11.264 74.6918 11.264C74.2838 11.264 73.9118 11.36 73.5758 11.552C73.2398 11.744 72.9718 12.024 72.7718 12.392C72.5718 12.76 72.4718 13.192 72.4718 13.688C72.4718 14.192 72.5718 14.632 72.7718 15.008C72.9718 15.376 73.2398 15.66 73.5758 15.86C73.9118 16.052 74.2838 16.148 74.6918 16.148C75.0998 16.148 75.4718 16.052 75.8078 15.86C76.1518 15.66 76.4238 15.376 76.6238 15.008C76.8238 14.632 76.9238 14.196 76.9238 13.7Z" fill="black"/>
</svg>
