<svg width="40" height="40" viewBox="0 0 40 40" fill="none" xmlns="http://www.w3.org/2000/svg">
<rect x="0.50293" y="0.581482" width="38.8324" height="38.837" rx="3.86756" fill="black" fill-opacity="0.25"/>
<path d="M25.909 13.8928C24.7956 13.3931 23.5998 13.0248 22.349 12.8276C22.1978 13.0906 22.0191 13.4457 21.8954 13.735C20.5621 13.5377 19.2563 13.5377 17.9505 13.735C17.8268 13.4457 17.6481 13.0906 17.4832 12.8276C16.2324 13.038 15.0365 13.3931 13.9232 13.906C11.669 17.1543 11.0504 20.3369 11.3528 23.4669C12.851 24.5322 14.2943 25.1897 15.7238 25.6106C16.0812 25.1503 16.3836 24.6505 16.6585 24.1376C16.1499 23.9535 15.6551 23.7168 15.1877 23.4538C15.3114 23.3617 15.4351 23.2696 15.5451 23.1776C18.3904 24.4533 21.4693 24.4533 24.2733 23.1776C24.397 23.2696 24.507 23.3617 24.6307 23.4538C24.1633 23.7168 23.6685 23.9535 23.1599 24.1376C23.4348 24.6505 23.7372 25.1503 24.0946 25.6106C25.5241 25.1897 26.9673 24.5322 28.4656 23.4669C28.8229 19.8372 27.847 16.6809 25.8952 13.8928H25.909ZM17.0433 21.5468C16.1911 21.5468 15.4901 20.7841 15.4901 19.8635C15.4901 18.9429 16.1774 18.167 17.0433 18.167C17.9093 18.167 18.6103 18.9297 18.5965 19.8635C18.5965 20.7972 17.9093 21.5468 17.0433 21.5468ZM22.7751 21.5468C21.9229 21.5468 21.2219 20.7841 21.2219 19.8635C21.2219 18.9429 21.9091 18.167 22.7751 18.167C23.641 18.167 24.342 18.9297 24.3283 19.8635C24.3283 20.7972 23.641 21.5468 22.7751 21.5468Z" fill="#29C5F6"/>
</svg>
