<svg width="40" height="40" viewBox="0 0 40 40" fill="none" xmlns="http://www.w3.org/2000/svg">
<rect x="0.670898" y="0.581482" width="38.8324" height="38.837" rx="3.86756" fill="black" fill-opacity="0.25"/>
<path d="M17.9444 13.7903C17.9444 14.2509 17.9444 16.3068 17.9444 16.3068H16.1406V19.384H17.9444V28.5283H21.6497V19.3843H24.1362C24.1362 19.3843 24.369 17.9088 24.4819 16.2955C24.1583 16.2955 21.6637 16.2955 21.6637 16.2955C21.6637 16.2955 21.6637 14.5053 21.6637 14.1915C21.6637 13.877 22.0677 13.454 22.467 13.454C22.8656 13.454 23.7067 13.454 24.4858 13.454C24.4858 13.0351 24.4858 11.5874 24.4858 10.2505C23.4458 10.2505 22.2625 10.2505 21.7409 10.2505C17.8528 10.2503 17.9444 13.3305 17.9444 13.7903Z" fill="#29C5F6"/>
</svg>
