<svg width="23" height="16" viewBox="0 0 23 16" fill="none" xmlns="http://www.w3.org/2000/svg">
<g clip-path="url(#clip0_280_1502)">
<path d="M0.171387 0H22.1714V16.0002H0.171387V0Z" fill="white"/>
<path d="M12.5464 -0.00012207H9.79639V6.49985H0.171387V9.49986H9.79639V15.9998H12.5464V9.49986H22.1714V6.49985H12.5464V-0.00012207Z" fill="#D80027"/>
<path d="M17.0917 10.7824L22.1712 13.861V10.7824H17.0917ZM13.5625 10.7824L22.1712 15.9998V14.5244L15.9969 10.7824H13.5625ZM19.8781 15.9998L13.5625 12.1718V15.9998H19.8781Z" fill="#0052B4"/>
<path d="M13.5625 10.7824L22.1712 15.9998V14.5244L15.9969 10.7824H13.5625Z" fill="white"/>
<path d="M13.5625 10.7824L22.1712 15.9998V14.5244L15.9969 10.7824H13.5625Z" fill="#D80027"/>
<path d="M4.05323 10.7823L0.171387 13.135V10.7823H4.05323ZM8.78009 11.4458V15.9998H1.2667L8.78009 11.4458Z" fill="#0052B4"/>
<path d="M6.3457 10.7824L0.171387 14.5244V15.9998L8.78009 10.7824H6.3457Z" fill="#D80027"/>
<path d="M5.25094 5.21726L0.171387 2.13869V5.21726H5.25094ZM8.78009 5.21726L0.171387 -0.00012207V1.47522L6.3457 5.21726H8.78009ZM2.46446 -0.00012207L8.78009 3.82788V-0.00012207H2.46446Z" fill="#0052B4"/>
<path d="M8.78009 5.21726L0.171387 -0.00012207V1.47522L6.3457 5.21726H8.78009Z" fill="white"/>
<path d="M8.78009 5.21726L0.171387 -0.00012207V1.47522L6.3457 5.21726H8.78009Z" fill="#D80027"/>
<path d="M18.2894 5.21731L22.1712 2.86465V5.21731H18.2894ZM13.5625 4.55384V-0.00012207H21.0759L13.5625 4.55384Z" fill="#0052B4"/>
<path d="M15.9969 5.21726L22.1712 1.47522V-0.00012207L13.5625 5.21726H15.9969Z" fill="#D80027"/>
</g>
<defs>
<clipPath id="clip0_280_1502">
<rect width="22" height="16" fill="white" transform="translate(0.171387)"/>
</clipPath>
</defs>
</svg>
