<svg width="39" height="30" viewBox="0 0 39 30" fill="none" xmlns="http://www.w3.org/2000/svg">
<path d="M33.0579 2.5C30.5417 1.32716 27.8392 0.462963 25.0124 0C24.6707 0.617284 24.2669 1.45062 23.9874 2.12963C20.9742 1.66667 18.0232 1.66667 15.0722 2.12963C14.7926 1.45062 14.3888 0.617284 14.016 0C11.1892 0.493827 8.48674 1.32716 5.97061 2.53086C0.876215 10.1543 -0.521636 17.6235 0.161757 24.9691C3.54766 27.4691 6.80932 29.0123 10.0399 30C10.8476 28.9198 11.5309 27.7469 12.1522 26.5432C11.0029 26.1111 9.88459 25.5556 8.82843 24.9383C9.108 24.7222 9.38757 24.5062 9.63608 24.2901C16.0662 27.2839 23.0244 27.2839 29.3613 24.2901C29.6409 24.5062 29.8894 24.7222 30.169 24.9383C29.1128 25.5556 27.9945 26.1111 26.8452 26.5432C27.4664 27.7469 28.1498 28.9198 28.9575 30C32.1881 29.0123 35.4497 27.4691 38.8356 24.9691C39.6433 16.4506 37.4378 9.04321 33.0268 2.5H33.0579ZM13.022 20.463C11.0961 20.463 9.51183 18.6728 9.51183 16.5123C9.51183 14.3519 11.065 12.5309 13.022 12.5309C14.979 12.5309 16.5632 14.321 16.5321 16.5123C16.5321 18.7037 14.979 20.463 13.022 20.463ZM25.9754 20.463C24.0495 20.463 22.4652 18.6728 22.4652 16.5123C22.4652 14.3519 24.0184 12.5309 25.9754 12.5309C27.9324 12.5309 29.5166 14.321 29.4856 16.5123C29.4856 18.7037 27.9324 20.463 25.9754 20.463Z" fill="white"/>
</svg>
