<svg width="40" height="40" viewBox="0 0 40 40" fill="none" xmlns="http://www.w3.org/2000/svg">
<rect x="0.838379" y="0.581482" width="38.8324" height="38.837" rx="3.86756" fill="black" fill-opacity="0.25"/>
<path d="M15.1147 12.0616C14.5703 12.2721 14.1056 12.5552 13.6483 13.0198C13.1909 13.4772 12.9078 13.9418 12.69 14.4863C12.4867 15.009 12.3488 15.6116 12.3052 16.4973C12.2617 17.383 12.2544 17.6588 12.2544 19.9094C12.2544 22.1599 12.2617 22.4357 12.3052 23.3214C12.3488 24.1999 12.4867 24.8024 12.69 25.3324C12.9005 25.8769 13.1836 26.3415 13.6483 26.7989C14.1056 27.2562 14.5703 27.5394 15.1147 27.7571C15.6374 27.9604 16.24 28.0984 17.1257 28.1419C18.0041 28.1855 18.2872 28.1927 20.5378 28.1927C22.7883 28.1927 23.0642 28.1855 23.9499 28.1419C24.8283 28.0984 25.4308 27.9604 25.9608 27.7571C26.5053 27.5466 26.9699 27.2635 27.4273 26.7989C27.8846 26.3415 28.1678 25.8769 28.3856 25.3324C28.5888 24.8097 28.7268 24.2071 28.7703 23.3214C28.8139 22.443 28.8211 22.1599 28.8211 19.9094C28.8211 17.6588 28.8139 17.383 28.7703 16.4973C28.7268 15.6116 28.5888 15.0163 28.3856 14.4863C28.175 13.9418 27.8919 13.4772 27.4345 13.0198C26.9772 12.5625 26.5125 12.2794 25.9681 12.0616C25.4454 11.8583 24.8428 11.7204 23.9571 11.6768C23.0714 11.6332 22.7956 11.626 20.545 11.626C18.2945 11.626 18.0186 11.6332 17.1329 11.6768C16.2473 11.7131 15.6447 11.8583 15.122 12.0616H15.1147ZM23.8773 13.165C24.6831 13.2013 25.1187 13.3393 25.4163 13.4482C25.8011 13.6006 26.077 13.7749 26.3674 14.0653C26.6577 14.3556 26.832 14.6315 26.9844 15.0163C27.1006 15.3067 27.2313 15.7495 27.2676 16.5553C27.3111 17.4265 27.3111 17.6879 27.3111 19.9021C27.3111 22.1163 27.3039 22.3777 27.2676 23.2488C27.2313 24.0547 27.0933 24.4903 26.9844 24.7879C26.832 25.1727 26.6577 25.4485 26.3674 25.7389C26.077 26.0293 25.8011 26.2036 25.4163 26.356C25.1259 26.4722 24.6831 26.6028 23.8773 26.6391C23.0061 26.6827 22.7447 26.6827 20.5305 26.6827C18.3163 26.6827 18.0549 26.6754 17.1838 26.6391C16.3779 26.6028 15.9423 26.4649 15.6447 26.356C15.2599 26.2036 14.9841 26.0293 14.6937 25.7389C14.4033 25.4485 14.229 25.1727 14.0766 24.7879C13.9604 24.4975 13.8298 24.0547 13.7935 23.2488C13.7499 22.3777 13.7499 22.1163 13.7499 19.9021C13.7499 17.6879 13.7572 17.4265 13.7935 16.5553C13.8298 15.7495 13.9677 15.3139 14.0766 15.0163C14.229 14.6315 14.4033 14.3556 14.6937 14.0653C14.9841 13.7749 15.2599 13.6006 15.6447 13.4482C15.9351 13.332 16.3779 13.2013 17.1838 13.165C18.0549 13.1215 18.3163 13.1215 20.5305 13.1215C22.7447 13.1215 23.0061 13.1215 23.8773 13.165Z" fill="#29C5F6"/>
<path d="M16.2905 19.9021C16.2905 22.247 18.1926 24.1491 20.5375 24.1491C22.8824 24.1491 24.7844 22.247 24.7844 19.9021C24.7844 17.5572 22.8824 15.6552 20.5375 15.6552C18.1926 15.6552 16.2905 17.5572 16.2905 19.9021ZM23.2962 19.9021C23.2962 21.4267 22.062 22.6608 20.5375 22.6608C19.0129 22.6608 17.7788 21.4267 17.7788 19.9021C17.7788 18.3776 19.0129 17.1434 20.5375 17.1434C22.062 17.1434 23.2962 18.3776 23.2962 19.9021Z" fill="#29C5F6"/>
<path d="M24.9589 16.4828C25.5082 16.4828 25.9535 16.0375 25.9535 15.4882C25.9535 14.9389 25.5082 14.4936 24.9589 14.4936C24.4096 14.4936 23.9644 14.9389 23.9644 15.4882C23.9644 16.0375 24.4096 16.4828 24.9589 16.4828Z" fill="#29C5F6"/>
</svg>
