<svg width="39" height="40" viewBox="0 0 39 40" fill="none" xmlns="http://www.w3.org/2000/svg">
<rect x="0.167969" y="0.581482" width="38.8324" height="38.837" rx="3.86756" fill="black" fill-opacity="0.25"/>
<path d="M27.4835 14.3442L29 12.8982V12.5815H23.7478L20.0047 21.8712L15.747 12.5815H10.24V12.8982L12.0113 15.0242C12.1845 15.1813 12.2736 15.4121 12.2513 15.6429V23.9972C12.3057 24.2992 12.2092 24.606 11.9965 24.8245L10 27.2378V27.5496H15.6555V27.2329L13.6615 24.827C13.5546 24.7193 13.4743 24.5887 13.4266 24.4452C13.379 24.3017 13.3654 24.1492 13.3868 23.9996V16.7722L18.3521 27.5545H18.9285L23.1986 16.7722V25.3622C23.1986 25.588 23.1986 25.6347 23.0501 25.7844L21.5138 27.2648V27.5815H28.9654V27.2648L27.4835 25.8188C27.3548 25.7206 27.288 25.5561 27.3152 25.3965V14.7664C27.3024 14.6875 27.3113 14.6067 27.3409 14.5324C27.3705 14.4581 27.4198 14.393 27.4835 14.3442Z" fill="#29C5F6"/>
</svg>
