<svg width="109" height="102" viewBox="0 0 109 102" fill="none" xmlns="http://www.w3.org/2000/svg">
<g id="Group 273">
<path id="Vector" d="M103.097 0.864655L61.2219 32.087L68.9876 13.6551L103.097 0.864655Z" fill="#E2761B"/>
<g id="Group">
<path id="Vector_2" d="M5.96625 0.968903L47.7504 32.566L40.3259 13.789L5.96625 0.968903Z" fill="#E4761B"/>
<path id="Vector_3" d="M88.0668 73.53L76.8438 90.7098L100.887 97.3141L107.75 73.9185L88.0668 73.53Z" fill="#E4761B"/>
<path id="Vector_4" d="M1.52014 73.9185L8.38344 97.3141L32.3834 90.7098L21.1604 73.53L1.52014 73.9185Z" fill="#E4761B"/>
<path id="Vector_5" d="M31.0454 44.4796L24.3116 54.5803L48.1821 55.6594L47.3188 30.0191L31.0454 44.4796Z" fill="#E4761B"/>
<path id="Vector_6" d="M78.1819 44.4795L61.6495 29.7169L61.0884 55.6594L84.9157 54.5802L78.1819 44.4795Z" fill="#E4761B"/>
<path id="Vector_7" d="M32.3835 90.7098L46.7144 83.717L34.3259 74.0912L32.3835 90.7098Z" fill="#E4761B"/>
<path id="Vector_8" d="M62.5128 83.717L76.8437 90.7098L74.8581 74.0912L62.5128 83.717Z" fill="#E4761B"/>
</g>
<g id="Group_2">
<path id="Vector_9" d="M76.8438 90.7097L62.5129 83.7169L63.6352 93.0838L63.5057 97.0119L76.8438 90.7097Z" fill="#D7C1B3"/>
<path id="Vector_10" d="M32.3835 90.7097L45.7216 97.0119L45.6353 93.0838L46.7144 83.7169L32.3835 90.7097Z" fill="#D7C1B3"/>
</g>
<path id="Vector_11" d="M45.7943 67.7172L34.04 64.2169L42.3147 60.3708L45.7943 67.7172Z" fill="#233447"/>
<path id="Vector_12" d="M63.4258 67.7172L66.8929 60.3708L75.1801 64.2169L63.4258 67.7172Z" fill="#233447"/>
<g id="Group_3">
<path id="Vector_13" d="M32.3835 90.7098L34.4123 73.53L21.1605 73.9185L32.3835 90.7098Z" fill="#CD6116"/>
<path id="Vector_14" d="M74.8151 73.53L76.8439 90.7098L88.0669 73.9185L74.8151 73.53Z" fill="#CD6116"/>
<path id="Vector_15" d="M84.9159 54.5803L61.0886 55.6594L63.29 67.8752L66.8296 60.5371L75.29 64.3788L84.9159 54.5803Z" fill="#CD6116"/>
<path id="Vector_16" d="M33.9806 64.3788L42.441 60.5371L45.9374 67.8752L48.182 55.6594L24.3115 54.5803L33.9806 64.3788Z" fill="#CD6116"/>
</g>
<g id="Group_4">
<path id="Vector_17" d="M24.3115 54.5803L34.3259 74.091L33.9806 64.3788L24.3115 54.5803Z" fill="#E4751F"/>
<path id="Vector_18" d="M75.2899 64.3788L74.8583 74.091L84.9158 54.5803L75.2899 64.3788Z" fill="#E4751F"/>
<path id="Vector_19" d="M48.1821 55.6594L45.9375 67.8752L48.7433 82.3356L49.3476 63.2997L48.1821 55.6594Z" fill="#E4751F"/>
<path id="Vector_20" d="M61.0885 55.6594L59.9662 63.2565L60.441 82.3356L63.2899 67.8752L61.0885 55.6594Z" fill="#E4751F"/>
</g>
<path id="Vector_21" d="M63.3062 67.9312L60.4872 82.4888L62.5374 83.8794L74.7529 74.1888L75.1801 64.4113L63.3062 67.9312Z" fill="#F6851B"/>
<path id="Vector_22" d="M34.04 64.4113L34.3837 74.1888L46.7137 83.8794L48.7329 82.4888L45.9404 67.9312L34.04 64.4113Z" fill="#F6851B"/>
<path id="Vector_23" d="M63.5727 97.0892L63.7032 93.2057L62.659 92.3095H46.5611L45.5604 93.2057L45.6474 97.0892L32.2034 90.8585L36.9023 94.6567L46.4306 101.144H62.7461L72.3178 94.6567L77.0167 90.8585L63.5727 97.0892Z" fill="#C0AD9E"/>
<path id="Vector_24" d="M62.6709 83.7791L60.5991 82.4101H48.9021L46.8734 83.7791L45.7944 93.0624L46.7871 92.164H62.7572L63.7931 93.0624L62.6709 83.7791Z" fill="#161616"/>
<g id="Group_5">
<path id="Vector_25" d="M105.031 34.2926L108.614 17.0264L103.218 0.968903L62.5131 31.2279L78.1822 44.4796L100.326 50.9545L105.247 45.2135L103.132 43.7027L106.499 40.5948L103.866 38.566L107.276 35.9761L105.031 34.2926Z" fill="#763D16"/>
<path id="Vector_26" d="M0.61377 17.0264L4.1965 34.2926L1.90873 35.9761L5.3188 38.566L2.72888 40.5948L6.13894 43.7027L3.98067 45.2135L8.85837 50.9545L31.0454 44.4796L46.7144 31.2279L5.96628 0.968903L0.61377 17.0264Z" fill="#763D16"/>
</g>
<path id="Vector_27" d="M100.41 51.0014L78.1533 44.576L84.9213 54.5997L74.8127 73.9617L88.0884 73.7904H107.872L100.41 51.0014Z" fill="#F6851B"/>
<path id="Vector_28" d="M31.1015 44.576L8.74322 51.0014L1.34845 73.7904H21.1403L34.4074 73.9617L24.3157 54.5997L31.1015 44.576Z" fill="#F6851B"/>
<path id="Vector_29" d="M61.0706 55.6784L62.4967 31.196L68.9356 13.7209H40.2845L46.6803 31.196L48.1496 55.6784L48.6681 63.3778L48.7113 82.4101H60.4224L60.5089 63.3778L61.0706 55.6784Z" fill="#F6851B"/>
</g>
</svg>
