<svg width="39" height="40" viewBox="0 0 39 40" fill="none" xmlns="http://www.w3.org/2000/svg">
<rect x="0.00585938" y="0.581482" width="38.8324" height="38.837" rx="3.86756" fill="black" fill-opacity="0.25"/>
<path d="M29.0507 14.1203C28.3648 14.4264 27.6246 14.6341 26.8516 14.7216C27.6354 14.2515 28.2451 13.4971 28.5281 12.6005C27.7879 13.0379 26.9714 13.3549 26.1005 13.5299C25.4037 12.7864 24.4131 12.3163 23.3135 12.3163C21.2016 12.3163 19.4924 14.0328 19.4924 16.1538C19.4924 16.46 19.525 16.7442 19.5904 17.0285C16.4115 16.8645 13.6028 15.3448 11.7086 13.016C11.382 13.5845 11.186 14.2405 11.186 14.9402C11.186 16.2741 11.861 17.4439 12.8843 18.1327C12.2529 18.1109 11.665 17.9359 11.1534 17.6517V17.6954C11.1534 19.5541 12.4706 21.1066 14.2233 21.4564C13.9076 21.5439 13.5702 21.5876 13.2218 21.5876C12.9714 21.5876 12.7319 21.5658 12.5033 21.522C12.9932 23.0417 14.3975 24.1569 16.074 24.1897C14.7677 25.2174 13.1129 25.8297 11.3275 25.8297C11.0227 25.8297 10.7179 25.8078 10.4131 25.775C12.1005 26.8684 14.1145 27.5025 16.27 27.5025C23.3026 27.5025 27.1456 21.6532 27.1456 16.5802C27.1456 16.4162 27.1456 16.2522 27.1347 16.0882C27.8858 15.5525 28.5281 14.8746 29.0398 14.0984" fill="#29C5F6"/>
</svg>
