<svg width="103" height="103" viewBox="0 0 103 103" fill="none" xmlns="http://www.w3.org/2000/svg">
<g id="Group 274">
<path id="Vector" d="M51.6138 102.004C79.7803 102.004 102.614 79.1706 102.614 51.0041C102.614 22.8376 79.7803 0.00408936 51.6138 0.00408936C23.4472 0.00408936 0.61377 22.8376 0.61377 51.0041C0.61377 79.1706 23.4472 102.004 51.6138 102.004Z" fill="#3B99FC"/>
<path id="b" d="M30.0525 37.3832C41.9473 25.7395 61.2175 25.7395 73.1122 37.3832L74.5559 38.7641C75.1522 39.3604 75.1522 40.3019 74.5559 40.8669L69.6599 45.6687C69.3461 45.9512 68.8753 45.9512 68.5928 45.6687L66.6156 43.7229C58.3301 35.5942 44.8661 35.5942 36.5805 43.7229L34.4778 45.7942C34.1639 46.0767 33.6932 46.0767 33.4107 45.7942L28.5147 41.0238C27.9184 40.4275 27.9184 39.4859 28.5147 38.921L30.0839 37.3832H30.0525ZM83.2495 47.3007L87.6119 51.569C88.2082 52.1653 88.2082 53.1069 87.6119 53.6718L67.9651 72.9105C67.3688 73.5069 66.3959 73.5069 65.831 72.9105L51.8962 59.2582C51.8962 59.2582 51.4882 59.1013 51.3627 59.2582L37.4279 72.9105C36.8316 73.5069 35.8587 73.5069 35.2938 72.9105L15.647 53.6718C15.0507 53.0755 15.0507 52.1339 15.647 51.569L20.0095 47.3007C20.6058 46.7044 21.5787 46.7044 22.1436 47.3007L36.0784 60.953C36.0784 60.953 36.4864 61.1099 36.6119 60.953L50.5467 47.3007C51.143 46.7044 52.1159 46.7044 52.6808 47.3007L66.6156 60.953C66.6156 60.953 67.0236 61.1099 67.1492 60.953L81.0839 47.3007C81.6802 46.7044 82.6532 46.7044 83.2495 47.3007Z" fill="white"/>
</g>
</svg>
